<svg xmlns="http://www.w3.org/2000/svg" viewBox="0 0 36 23">
  <g fill="#99A4B0" fill-rule="nonzero">
    <path d="M0 15.162v-5.65c.1-.425.223-.846.297-1.275.112-.647.409-1.207.746-1.754.11-.178.25-.171.431-.112.417.137.835.323 1.264.36.735.063 1.488.057 2.034-.592.031-.036.087-.05.123-.083.518-.479 1.076-.923 1.452-1.532.065-.104.065-.29.02-.412-.13-.363-.454-.506-.796-.615-.265-.084-.527-.175-.791-.264l-.009-.088c.118-.065.234-.133.353-.196.533-.286 1.057-.59 1.602-.85.449-.214.919-.385 1.386-.556.63-.231 1.262-.459 1.902-.66.412-.129.835-.224 1.26-.306a94.655 94.655 0 0 1 2.993-.544c.502-.08.485-.047.536.46.022.224.095.51.25.64.385.324.87.434 1.379.43.65-.006 1.3.02 1.95-.005.693-.025 1.398.099 2.077-.152.37-.137.717-.292.766-.75.014-.14.015-.28.012-.42-.004-.169.058-.253.237-.228.181.026.363.047.545.07 2.064.26 4.076.732 6.022 1.477 1.074.411 2.095.927 3.09 1.5.056.033.09.105.136.159-.06.035-.118.077-.181.104-.352.147-.719.264-1.056.44-.427.223-.5.645-.175.982.514.53 1.038 1.053 1.584 1.55.183.166.434.296.675.354.778.187 1.533.037 2.269-.245.35-.134.442-.106.63.205a6.19 6.19 0 0 1 .932 3.148c.003.12.036.24.055.36v4.2c-.02.13-.045.26-.058.39-.06.59-.41 1.016-.799 1.419-.005.006-.03-.006-.075-.016-.006-.096-.017-.2-.017-.305-.002-.908-.006-1.816.001-2.724.002-.224-.068-.341-.303-.365-.155-.016-.306-.075-.458-.116-.368-.1-.73-.235-1.105-.296-.72-.118-1.362.059-1.9.585-.415.407-.849.796-1.288 1.177-.447.388-.464.869-.021 1.203.04.03.082.06.128.078.364.139.736.258 1.091.417.207.092.415.219.567.382.07.077.01.277.008.42v.05c.008.7.004 1.4.03 2.099.01.302-.114.486-.365.62-.285.154-.567.313-.847.475a19.309 19.309 0 0 1-3.102 1.427c-1.899.69-3.859 1.126-5.857 1.398-.343.046-.38.023-.376-.32.011-1.324.03-2.647.034-3.97a.649.649 0 0 0-.142-.356c-.323-.43-.808-.51-1.294-.517a149.3 149.3 0 0 0-3.671-.005c-.254.002-.52.04-.755.13-.287.11-.573.291-.624.627-.052.344-.051.697-.049 1.046.007 1.066.025 2.131.04 3.197.002.15-.058.213-.213.19-.369-.055-.74-.101-1.11-.154a25.19 25.19 0 0 1-3.814-.862 22.016 22.016 0 0 1-5.078-2.304.554.554 0 0 1-.231-.329 3.716 3.716 0 0 1-.048-.739 53.77 53.77 0 0 1 .049-1.945c.005-.1.096-.232.185-.284.063-.037.228.003.283.065.325.37.754.551 1.198.716a.53.53 0 0 1 .24.156c.155.212.369.203.586.177.05-.006.127-.072.131-.117.005-.042-.063-.123-.11-.133-.263-.057-.49-.175-.73-.29a4.392 4.392 0 0 1-.824-.531c-.066-.052-.104-.14-.155-.21.087-.055.171-.148.262-.155.086-.006.187.066.264.127.062.049.084.158.15.192.076.04.18.028.273.039-.028-.082-.033-.19-.09-.243-.234-.218-.243-.317.048-.459.268-.131.377-.365.487-.607a.223.223 0 0 0-.012-.182c-.242-.379-.57-.678-.908-.97-.225-.193-.44-.398-.659-.6-.188-.172-.35-.389-.564-.515-.605-.353-1.268-.376-1.935-.218-.371.089-.731.223-1.1.326-.401.113-.405.108-.405.52 0 .916.003 1.832.001 2.748 0 .085-.024.17-.036.254l-.068.021c-.067-.087-.13-.179-.202-.261-.217-.243-.439-.482-.658-.723Zm17.986 1.143c.79-.047 1.582-.062 2.366-.148 1.855-.203 3.66-.62 5.372-1.382 1.36-.605 2.61-1.38 3.55-2.565 1.12-1.412 1.389-2.942.56-4.593-.376-.75-.935-1.356-1.578-1.883-1.406-1.153-3.038-1.851-4.774-2.32-3.03-.818-6.1-.92-9.188-.4-1.852.313-3.628.866-5.26 1.821-1.126.66-2.126 1.462-2.788 2.62-.47.821-.67 1.699-.518 2.641.172 1.062.722 1.924 1.47 2.666 1.255 1.243 2.792 2.01 4.445 2.55 2.057.672 4.176.982 6.343.993Zm-9.683 1.254-.038.108c.141.141.294.267.521.237.046-.006.1-.055.12-.098.01-.024-.038-.101-.072-.112-.175-.053-.354-.091-.531-.135Zm1.32.716.254-.175c-.107-.06-.209-.143-.324-.174-.056-.014-.137.07-.207.11l.278.239Zm1.469.145c-.17-.177-.35-.183-.535-.117-.025.009-.027.173-.018.176.18.045.363.082.553-.06Zm-3.49-1.101-.015.13.316.022.01-.121-.312-.031Z"/>
    <path d="M8.303 17.559c.177.044.356.082.53.135.035.01.083.088.072.112-.018.043-.073.092-.119.098-.227.03-.38-.096-.521-.237l.038-.108Zm1.32.716-.277-.239c.07-.04.151-.124.207-.11.115.03.217.113.324.174l-.253.175Zm1.469.145c-.19.14-.374.104-.553.059-.01-.003-.007-.167.019-.176.184-.066.364-.06.534.117Zm-3.49-1.101.31.03-.01.122-.315-.022.014-.13ZM17.892 15.26c-2.23-.018-4.576-.388-6.792-1.401-.962-.44-1.844-1.002-2.574-1.78-1.499-1.594-1.498-3.545.004-5.138.876-.93 1.957-1.545 3.126-2.018 1.812-.732 3.709-1.072 5.654-1.143 2.481-.09 4.907.212 7.228 1.142 1.163.465 2.24 1.075 3.109 1.997.695.738 1.16 1.584 1.147 2.634-.012 1.01-.466 1.826-1.134 2.539-.873.931-1.957 1.544-3.128 2.013-2.07.83-4.234 1.15-6.64 1.156ZM5.733 16.763c.396.08.776.262 1.099.504.13.097.253-.12.126-.216a2.947 2.947 0 0 0-1.159-.529c-.157-.032-.224.21-.066.241Z"/>
    <path d="M6.443 16.957c.19.068.37.155.55.245l.097-.228a6.644 6.644 0 0 1-.807-.258c-.08-.03-.153.046-.158.12-.076 1.13 1.421 1.094 2.19 1.093.094 0 .156-.106.107-.188-.196-.328-.626-.408-.948-.56l-.03.228c.474-.068.877.284 1.321.387l.067-.241c-.282-.06-.567-.1-.84-.194l-.066.241c.432.073.845.216 1.259.355l.066-.241c-.395-.076-.76-.249-1.162-.295-.122-.014-.148.14-.089.213.207.258.54.38.863.392.142.005.17-.211.033-.246a3.719 3.719 0 0 1-.42-.129l-.066.241c.575.11 1.198.009 1.745.246l.063-.233c-.283.02-.557-.056-.839-.065-.134-.004-.157.166-.063.233.133.096.273.183.42.258l.126-.215a7.671 7.671 0 0 1-.678-.355l-.096.228c.331.108.633.288.968.387l.066-.24c-.204-.057-.411-.099-.613-.162-.142-.045-.208.152-.096.228.718.494 1.61.565 2.451.432.112-.017.115-.178.03-.228-.463-.274-.973-.187-1.482-.27-.156-.027-.224.193-.066.24.199.06.385.157.58.226l.067-.241c-.12-.037-.234-.092-.355-.129-.154-.047-.22.194-.066.241.12.037.234.092.355.13.155.047.216-.189.066-.242-.196-.07-.382-.167-.58-.226l-.067.241c.477.079.99-.01 1.422.246l.03-.229c-.777.123-1.597.048-2.259-.407l-.096.229c.201.063.409.105.613.161.156.043.22-.195.066-.24-.335-.1-.636-.28-.968-.388-.136-.044-.218.16-.096.229.222.126.444.25.677.354.144.065.272-.14.127-.215a3.378 3.378 0 0 1-.42-.258l-.063.232c.282.01.555.085.839.065.11-.008.187-.179.063-.233-.578-.25-1.199-.155-1.804-.27-.16-.031-.217.183-.067.24.138.053.277.094.42.13l.033-.246a.908.908 0 0 1-.686-.318l-.088.213c.377.043.724.215 1.096.286.157.03.22-.19.066-.241-.414-.139-.826-.282-1.258-.355-.158-.026-.22.188-.066.241.272.095.557.134.838.194.157.033.224-.205.067-.241-.509-.118-.907-.466-1.454-.387-.106.015-.122.184-.03.228.27.128.696.199.859.471l.108-.188c-.62.001-2.003.095-1.94-.843l-.158.121c.265.1.53.193.806.258.134.031.228-.163.097-.228-.2-.1-.4-.196-.61-.271-.153-.054-.218.187-.067.241Z"/>
    <path d="M5.444 16.703c.532.05.863.567 1.353.738l.067-.241c-.345-.079-.528-.356-.74-.614-.19-.232-.412-.383-.713-.423-.16-.021-.157.23 0 .25.33.044.514.323.706.562.182.224.394.4.68.466.159.036.218-.189.067-.241-.527-.184-.833-.692-1.42-.747-.161-.015-.16.235 0 .25Z"/>
    <path d="M5.336 16.351c.021.047.028.117-.02.152-.055.04-.082.107-.045.17.032.055.116.086.171.046.167-.122.193-.312.11-.494-.03-.062-.117-.077-.172-.045-.063.037-.073.11-.044.171Z"/>
    <path d="m5.29 16.287-.193.233a.175.175 0 0 0 0 .214.111.111 0 0 0 .177 0l.193-.234a.175.175 0 0 0 0-.213.111.111 0 0 0-.176 0Zm.523-.407c-.073.238-.147.47-.171.724-.019.193.232.19.25 0 .02-.223.098-.435.162-.644.056-.183-.186-.261-.241-.08Z"/>
    <path d="M6.195 15.79c-.128.111-.236.243-.367.35-.052.044-.044.133 0 .177.052.052.124.043.177 0 .13-.107.24-.239.367-.35.122-.106-.056-.282-.177-.177Z"/>
    <path d="M6.004 15.904c-.105.057-.196.145-.288.22a3.551 3.551 0 0 1-.163.13 1.076 1.076 0 0 1-.073.049c-.065.04.006-.016.061.063-.092-.13-.309-.006-.216.126.11.155.283.032.394-.052.136-.102.26-.238.41-.32.143-.077.016-.292-.125-.216Z"/>
    <path d="M5.6 16.058a.506.506 0 0 0-.234.109c-.068.05-.13.112-.216.125-.067.01-.104.094-.087.153.02.072.086.098.154.088.178-.027.275-.21.45-.234.067-.009.103-.094.087-.153-.02-.073-.086-.097-.154-.088Z"/>
    <path d="M5.37 15.988c-.108.048-.195.128-.3.183-.143.075-.016.29.126.216.105-.055.192-.135.3-.183.063-.029.077-.117.045-.172-.037-.063-.109-.072-.17-.044Z"/>
    <path d="M5.254 15.954c-.072.032-.133.08-.197.125-.065.045-.108.072-.169.011l-.025.197c.08-.036.254-.04.363-.08.161-.056.258-.188.211-.361-.018-.07-.087-.101-.154-.088-.038.008-.064.025-.096.046-.135.088-.01.304.126.216A.104.104 0 0 1 5.35 16l-.154-.088c.008.03.01.028-.005.038-.041.027-.094.037-.141.047-.106.023-.214.029-.313.074-.074.034-.078.144-.025.196.097.097.22.14.352.09.117-.043.203-.137.316-.187.147-.065.02-.28-.126-.216Z"/>
    <path d="M5.154 15.838c-.174.088-.357.148-.537.22-.124.05-.118.247.033.246.468-.005 1.226-.05 1.538-.453.098-.126-.078-.305-.176-.177-.27.348-.96.376-1.362.38l.033.245c.2-.08.404-.147.597-.245.143-.074.017-.29-.126-.216Z"/>
    <path d="M5.859 15.55a.948.948 0 0 1-.272.32c-.055.041-.082.108-.045.172.032.054.116.085.171.045.147-.109.277-.249.362-.412.074-.143-.142-.269-.216-.126Z"/>
    <path d="M5.87 15.47c-.167.09-.28.244-.433.35-.132.092-.007.309.126.217.153-.106.268-.262.433-.35.143-.076.017-.292-.126-.216Z"/>
    <path d="M5.767 15.575c-.29.049-.47.3-.73.413-.148.064-.02.28.126.216.237-.104.408-.344.67-.388.159-.027.091-.267-.066-.241Z"/>
    <path d="M5.754 15.538c-.12.086-.232.18-.35.266-.056.04-.082.108-.045.171.032.055.115.085.17.045.12-.086.232-.18.35-.266.056-.04.083-.108.046-.172-.032-.054-.116-.084-.171-.044Z"/>
    <path d="M5.5 16c.126-.019.245-.065.367-.1.154-.046.088-.287-.067-.242-.122.036-.24.082-.367.1-.067.01-.103.095-.087.154.02.072.086.097.154.087Zm-.308.45c-.191.436-.343.98-.059 1.413.23.351.679.46 1.075.456.876-.008 1.923-.595 1.967-1.557.005-.101-.108-.147-.188-.108-.5.243-.783.77-.958 1.275l.184-.075c-.364-.246-.51-.635-.817-.926-.303-.29-.733-.125-1.06.026l.189.108c-.009-.11-.03-.205-.005-.317.024-.101-.086-.203-.183-.14-.164.104-.336.194-.5.3l.183.14c.055-.186.184-.276.343-.375l-.171-.045c.187.3.263.65.45.95.028.045.088.077.141.058.345-.129.629-.358.93-.563l-.184-.075c.096.38.05.78.046 1.167-.001.161.248.161.25 0 .004-.395.053-.782.146-1.167h-.242c.042.238.046.476.046.717 0 .161.25.161.25 0 0-.264-.009-.523-.054-.783-.022-.124-.214-.115-.241 0a5.48 5.48 0 0 0-.155 1.233h.25c.003-.412.047-.829-.054-1.233-.02-.075-.118-.12-.184-.075-.28.19-.55.418-.87.538l.141.057c-.187-.3-.263-.65-.45-.95-.035-.057-.112-.081-.171-.045-.217.135-.384.273-.457.525-.03.103.09.2.183.141.164-.105.336-.195.5-.3l-.183-.141c-.031.135-.016.247-.005.383.008.1.099.15.188.108.187-.086.41-.19.621-.141.133.03.223.164.296.269.207.296.402.566.707.772.07.048.159-.003.184-.075.154-.446.4-.91.842-1.125l-.188-.108c-.037.804-.933 1.258-1.645 1.305-.319.02-.671-.04-.895-.285-.297-.325-.13-.86.023-1.207.064-.146-.151-.273-.216-.126Z"/>
    <path d="M7.025 16.562c-.056.616-.197 1.218-.346 1.817-.034.14.152.215.229.096.055-.086.075-.185.112-.28.06-.15-.181-.214-.24-.066-.03.072-.045.154-.088.22l.228.096c.155-.62.297-1.245.355-1.883.015-.16-.236-.159-.25 0Zm.667.313c.198.462.312.954.55 1.4.076.143.292.016.216-.126-.237-.445-.352-.938-.55-1.4-.064-.148-.279-.02-.216.126Zm1.137.12c.097.526-.008 1.134.213 1.63.065.147.28.02.216-.126-.103-.232-.094-.522-.108-.77-.016-.268-.03-.536-.08-.8-.029-.158-.27-.091-.24.066Zm.546.617c-.003.48-.04.96.054 1.433.016.08.119.116.184.075.104-.064.144-.136.195-.245.067-.145-.148-.272-.216-.126-.028.061-.043.117-.105.155l.183.075c-.09-.45-.048-.91-.045-1.367.001-.161-.249-.161-.25 0ZM10.075 18.012c0 .33.004.657.054.983.025.16.266.092.241-.066-.046-.303-.045-.61-.045-.917 0-.161-.25-.161-.25 0ZM10.675 18.012c0 .214.006.425.054.633.037.158.278.09.241-.066a2.495 2.495 0 0 1-.045-.567c0-.161-.25-.161-.25 0Z"/>
    <path d="M10.925 17.662c-.003.45-.059.887-.196 1.317-.049.154.193.22.241.066.144-.45.201-.911.205-1.383.001-.161-.249-.16-.25 0ZM11.38 18.195l.15 1.05c.022.16.263.092.24-.066l-.15-1.05c-.022-.16-.263-.091-.24.066Z"/>
    <path d="M12.792 17.7c-.292.41-.575.828-.93 1.19-.327.334-.846.71-1.345.613-.359-.07-.363-.562-.367-.844-.006-.4.043-.797.025-1.197-.003-.074-.055-.116-.125-.125-.761-.09-1.425.477-2.133.655l.153.087c-.127-.31-.013-.689-.103-1.013-.086-.314-.475-.194-.687-.101-.368.16-.66.399-1.076.372-.452-.028-1.017-.22-1.246-.638l-.02.152c.25-.279.583-.41.945-.468l-.154-.088c.18.498.052 1.009-.004 1.517-.015.14.168.148.233.063.233-.302.278-.695.5-1l-.229-.03c.139.41.092.833-.05 1.234h.242c-.19-.595.244-1.263.537-1.754l-.229-.03c.141.46.099.943.096 1.417 0 .107.138.169.213.089.257-.272.418-.61.65-.9l-.208-.056c.087.437.049.88-.005 1.317h.25c-.039-.459.2-.907.433-1.287l-.233-.063c.046.35.05.699.05 1.05 0 .14.212.172.246.033.058-.241.175-.436.367-.594l-.208-.056c.09.47 0 .95-.055 1.417h.25c-.037-.459.126-.911.383-1.287l-.228-.03c.18.49.12 1.118-.218 1.529l.213.088c-.035-.44.193-.855.383-1.237l-.228-.03c.047.27.045.545.045.817 0 .108.137.168.214.089.236-.247.42-.56.724-.73l-.183-.075c.181.462.012.97.212 1.43.033.074.145.078.197.025.272-.282.479-.618.75-.9l-.197-.026c.16.342.2.725.4 1.05.05.082.166.08.216 0 .16-.252.251-.629.505-.805l-.183-.074c.053.174.083.35.05.533-.03.158.211.225.24.067a1.377 1.377 0 0 0-.05-.667c-.021-.072-.114-.122-.183-.075-.306.212-.403.593-.595.895h.216c-.198-.322-.242-.709-.4-1.05-.034-.073-.144-.08-.196-.025-.271.282-.478.618-.75.9l.196.025c-.188-.429-.014-.928-.187-1.37-.03-.075-.108-.117-.184-.075-.326.183-.522.506-.775.77l.213.088c0-.295-.003-.59-.054-.883-.019-.106-.182-.123-.229-.03-.21.42-.456.88-.417 1.363.008.097.138.181.214.089.393-.478.495-1.194.282-1.772-.038-.104-.165-.122-.229-.03-.28.408-.457.915-.417 1.413.014.163.232.159.25 0 .057-.494.142-.988.046-1.483-.02-.1-.143-.11-.209-.055a1.277 1.277 0 0 0-.432.705l.245.033c0-.351-.004-.7-.05-1.05-.015-.117-.162-.178-.233-.063-.253.414-.509.913-.467 1.413.014.164.231.159.25 0 .057-.462.088-.923-.004-1.383-.017-.087-.151-.127-.209-.055-.231.29-.395.63-.65.9l.213.088c.003-.497.043-1-.104-1.483-.031-.103-.172-.124-.228-.03-.33.552-.774 1.28-.563 1.947.039.122.2.116.241 0 .156-.44.202-.92.05-1.367-.037-.108-.164-.118-.228-.03-.223.305-.268.698-.5 1l.233.063c.058-.532.183-1.062-.005-1.583-.025-.07-.082-.099-.154-.087-.401.064-.78.225-1.055.532a.128.128 0 0 0-.02.151c.191.348.55.538.915.658.324.107.742.18 1.064.036.121-.054.95-.533 1.006-.387.12.318-.027.696.103 1.014.026.064.082.105.154.087.684-.172 1.335-.732 2.067-.646l-.125-.125c.02.468-.047.936-.018 1.404.022.362.13.735.503.867.485.171 1.065-.182 1.421-.475.478-.393.822-.934 1.177-1.433.093-.131-.124-.256-.217-.126Z"/>
    <path d="M4.725 16.262c-.05.632-.05 1.266-.05 1.9 0 .107.138.169.213.089.429-.455.516-1.098.82-1.626h-.216c.186.44.23.914.233 1.387.001.162.247.161.25 0 .01-.43.136-.842.196-1.267l-.246-.033c.044.383.05.766.05 1.15 0 .09.108.163.188.108.456-.314.529-.896.795-1.345h-.216c.424.598.339 1.343.383 2.037.009.133.223.18.246.033.054-.352.145-.697.2-1.05.024-.157-.217-.225-.241-.066-.055.352-.146.698-.2 1.05l.245.033c-.047-.738.034-1.527-.417-2.163-.053-.075-.165-.086-.216 0-.236.397-.305.98-.705 1.255l.188.108c0-.384-.006-.767-.05-1.15-.015-.127-.224-.184-.245-.033-.063.447-.195.88-.205 1.333h.25c-.003-.522-.062-1.029-.267-1.513-.038-.09-.173-.074-.216 0-.29.505-.372 1.142-.78 1.575l.213.088c0-.634 0-1.268.05-1.9.013-.16-.237-.16-.25 0Z"/>
    <path d="M7.512 17.4c.255.219.275.597.285.91.011.317-.02.635-.022.952-.001.162.249.161.25 0 .004-.617.203-1.578-.337-2.038-.121-.104-.3.072-.176.177ZM9.475 17.262c-.05.916-.097 1.833-.05 2.75.005.102.1.147.188.108.16-.07.209-.204.295-.345.084-.138-.132-.263-.216-.126-.06.098-.094.207-.205.255l.188.108c-.047-.917 0-1.834.05-2.75.009-.16-.241-.16-.25 0ZM10.78 17.795c.145.702.2 1.425.45 2.1.034.095.132.116.208.056.153-.12.222-.276.282-.456.052-.153-.19-.218-.24-.066-.049.143-.097.25-.218.345l.208.055c-.25-.676-.304-1.399-.45-2.1-.032-.158-.273-.09-.24.066ZM12.08 17.845c.2.6.1 1.248.145 1.867.012.16.25.163.25 0v-.25c0-.161-.25-.161-.25 0v.25h.25c-.047-.642.054-1.312-.154-1.933-.052-.152-.293-.087-.242.066Z"/>
    <path d="M12.33 17.895c.093.563.055 1.137.15 1.7.026.16.267.092.24-.066-.094-.563-.055-1.137-.15-1.7-.026-.159-.267-.091-.24.066ZM12.78 18.395c.157.453.145.944.145 1.417 0 .161.25.161.25 0 0-.494.01-1.01-.154-1.483-.053-.151-.295-.086-.242.066Z"/>
    <path d="M12.825 18.312c.002.209.185 1.538-.125 1.525-.161-.007-.16.243 0 .25.663.028.379-1.41.375-1.775-.002-.16-.252-.161-.25 0ZM11.537 18.254c-.344.258-.565.72-.97.888-.147.06-.083.303.066.24.448-.185.656-.632 1.03-.912.127-.095.003-.313-.126-.216ZM9.162 17.474c-.329.353-.374.952-.775 1.23-.132.091-.007.308.126.216.444-.307.473-.89.825-1.27.11-.117-.066-.294-.176-.176ZM7.487 17.004c-.475.21-.482.853-.775 1.22-.1.124.076.303.176.177.136-.17.22-.363.302-.564.093-.228.18-.51.423-.617.147-.065.02-.28-.126-.216ZM6.062 16.974c-.182.184-.326.4-.383.655-.035.157.206.224.241.066.048-.215.166-.389.318-.544.113-.115-.063-.292-.176-.177ZM5.312 16.574c-.228.247-.27.604-.5.85-.11.117.066.294.176.177.232-.248.276-.607.5-.85.11-.119-.067-.296-.176-.177Z"/>
    <path d="M4.68 16.579c-.1.267-.105.552-.105.833 0 .161.25.161.25 0 0-.26.004-.519.096-.767.055-.151-.186-.216-.242-.066Z"/>
    <path d="M4.713 16.62c.164-.105.739-.551.833-.186.091.352.014.768.029 1.128.006.135.219.178.246.033.05-.276.145-.526.287-.77l-.229-.03c.092.35.096.708.096 1.067 0 .1.142.177.213.089.316-.392.259-.968.65-1.3l-.151.02c.431.314.436 1.011.438 1.491 0 .14.211.172.246.034.097-.39.196-.779.35-1.15l-.21.055c.426.344.53.96.719 1.445.04.105.161.12.228.03.211-.287.278-.643.45-.95h-.216c.095.19.174.37.183.586.007.161.244.162.25 0 .01-.27.09-.53.1-.8l-.213.089c.252.282.222.759.263 1.111.018.157.245.165.25 0 .008-.247.075-.465.183-.687l-.196.026c.291.313.375.753.518 1.145.044.12.195.116.24 0 .13-.33.142-.697.288-1.02h-.216c.287.407.34.906.488 1.37.037.116.206.121.24 0 .095-.33.19-.66.338-.97l-.196.025c.349.273.424.75.568 1.145.028.079.144.134.209.055.312-.385.444-.855.632-1.305l-.21.055c.276.294.383.675.519 1.045.04.112.205.125.24 0 .1-.35.188-.704.3-1.05l-.228.03c.269.426.337.962.238 1.453l.209-.055a1.181 1.181 0 0 1-.18-.275c-.074-.144-.29-.017-.217.126.061.12.13.226.22.326.06.067.19.035.209-.056.112-.555.042-1.161-.263-1.646a.126.126 0 0 0-.228.03c-.113.346-.201.7-.3 1.05h.24c-.15-.412-.275-.827-.581-1.155-.071-.076-.175-.026-.21.055-.169.406-.285.847-.567 1.195l.209.055c-.158-.435-.248-.954-.632-1.255-.059-.046-.158-.055-.197.025-.158.33-.262.679-.362 1.03h.24c-.154-.485-.212-1.004-.512-1.43-.048-.068-.174-.093-.216 0-.156.345-.174.729-.312 1.08h.24c-.158-.435-.257-.906-.581-1.255-.053-.056-.162-.046-.197.025-.126.26-.207.522-.217.813h.25c-.05-.43-.03-.945-.336-1.288-.077-.086-.21-.014-.214.088-.01.27-.09.53-.1.8h.25c-.011-.26-.102-.482-.217-.713-.042-.084-.172-.078-.216 0-.171.307-.239.664-.45.95l.229.03c-.205-.524-.322-1.183-.782-1.555-.079-.064-.172-.036-.21.055-.153.372-.252.76-.35 1.15l.246.033c-.002-.589-.042-1.33-.562-1.708-.047-.034-.111-.014-.151.02-.413.35-.33.903-.65 1.3l.213.088c0-.381-.007-.762-.104-1.133-.028-.105-.175-.123-.229-.03a2.55 2.55 0 0 0-.312.83l.245.033c-.017-.415.097-.953-.091-1.34-.219-.449-.908.028-1.147.182-.135.087-.01.304.126.216Z"/>
    <path d="M7.617 16.342c-.311.081-.583.343-.827.54-.316.255-.627.556-.997.733-.318.152-.293-.556-.312-.72-.041-.35-.177-.664-.548-.753-.071-.018-.128.022-.154.087-.156.4-.157.854-.05 1.267.019.07.088.1.154.087.22-.043.338-.238.437-.42.117-.216.3-.608.607-.427.221.13.275.511.314.738.046.26.053.526.084.788.012.105.128.17.213.089.52-.497.56-1.284 1.05-1.8l-.151.02c.683.516.563 1.594.842 2.325.04.103.165.123.229.03.15-.22.313-.483.548-.62.126-.074.199.095.244.185.211.415.313.874.542 1.284.032.058.114.081.171.045.284-.179.503-.412.747-.638.277-.257.553.302.682.493.035.052.113.087.171.045.487-.353.5-1.073 1-1.4l-.151-.02c.269.291.323.69.467 1.045.032.077.143.137.21.056.091-.114.154-.246.219-.376l-.229-.03c.029.092.045.171.046.267.001.161.251.162.25 0 0-.117-.02-.22-.054-.333-.03-.097-.178-.131-.229-.03-.054.108-.104.23-.18.325l.209.055c-.163-.4-.23-.828-.533-1.155a.125.125 0 0 0-.151-.02c-.229.15-.372.364-.495.603-.14.275-.245.609-.505.797l.17.045c-.173-.257-.454-.779-.84-.69-.139.031-.253.162-.349.258-.18.182-.363.35-.581.487l.17.045a6.227 6.227 0 0 1-.386-.905c-.074-.203-.147-.417-.288-.585-.382-.456-.92.392-1.09.64l.228.03c-.315-.822-.186-1.89-.958-2.475-.043-.033-.116-.017-.151.02-.491.517-.536 1.309-1.05 1.8l.213.088c-.061-.525-.006-1.368-.49-1.719-.244-.177-.54-.105-.737.105-.172.185-.26.641-.531.694l.154.087a1.841 1.841 0 0 1 .05-1.134l-.154.088c.424.102.365.63.41.971.036.273.171.58.497.529.338-.053.674-.402.927-.607.284-.231.617-.597.982-.693.156-.041.09-.282-.066-.241Z"/>
    <path d="M4.525 16.362c-.002.612-.047 1.227.054 1.833.02.115.176.113.229.03.303-.472.459-1.011.662-1.53l-.208.056c.273.349.222.845.263 1.261.011.111.174.187.233.063.195-.406.293-.868.58-1.224h-.176c.3.327.328.83.417 1.244.019.086.152.13.21.056.232-.296.344-.674.6-.95l-.152.02c.375.26.35.836.388 1.241.01.103.131.173.213.089.19-.195.36-.406.55-.6l-.196-.026c.114.223.24.44.338.67.037.09.13.121.208.056.13-.11.266-.21.42-.287.255-.128.311.069.317.298.003.106.136.17.213.089.257-.272.418-.61.65-.9l-.196-.026c.129.216.186.477.238.72.022.109.176.12.228.03.106-.18.28-.286.43-.424l-.196-.026c.19.414.135.895.133 1.337h.25c-.038-.308-.006-.582.183-.837h-.216c.085.163.174.298.183.487l.246-.033c-.055-.245-.066-.5-.105-.749-.034-.22-.065-.474-.292-.572-.258-.11-.564.018-.802.121-.414.18-.773.284-1.236.252-.47-.032-.931-.202-1.386-.313-.52-.127-1.053-.188-1.577-.288-.318-.06-.681-.104-.943-.313-.238-.19-.35-.516-.46-.788l-.087.154c.352-.103.607-.03.743.323.114.298.139.629.204.94.03.146.234.098.245-.034.016-.186.129-.345.196-.516l-.21.055c.236.301.32.684.481 1.024.034.072.145.082.197.026.192-.208.379-.466.625-.613.253-.15.485.33.578.487.052.089.16.073.216 0 .2-.261.465-.398.754-.174.126.097.304-.079.177-.177-.428-.33-.839-.179-1.147.225h.216c-.15-.254-.39-.694-.752-.636-.351.057-.623.471-.844.711l.196.025c-.174-.364-.267-.751-.52-1.075-.064-.082-.179-.021-.208.055-.079.2-.186.365-.205.583l.246-.033c-.08-.382-.107-.79-.295-1.14-.198-.369-.594-.403-.96-.297-.059.017-.112.09-.086.154.214.532.432.962 1.007 1.149.42.136.879.183 1.313.254a16.55 16.55 0 0 1 1.52.34c.427.11.852.18 1.293.13.359-.04.652-.209.985-.333.1-.037.388-.14.475-.027.065.084.075.233.093.334.048.265.055.54.114.803.03.137.252.107.245-.034-.01-.238-.109-.407-.217-.613-.048-.09-.164-.07-.216 0-.212.287-.26.615-.217.963.02.156.25.166.25 0 .003-.495.044-1-.167-1.463-.035-.076-.142-.075-.196-.025-.168.154-.352.274-.47.475l.229.03c-.056-.265-.123-.545-.263-.78-.038-.063-.145-.09-.196-.025-.231.29-.396.63-.65.9l.213.088c-.007-.273-.075-.571-.394-.594-.28-.021-.572.24-.77.406l.21.055c-.106-.251-.239-.487-.363-.73-.037-.072-.142-.08-.196-.025-.19.194-.361.405-.55.6l.213.088c-.049-.514-.042-1.131-.512-1.458-.044-.03-.115-.019-.151.02-.26.28-.367.653-.6.95l.209.055c-.1-.468-.144-.987-.482-1.355-.043-.046-.136-.051-.177 0-.306.378-.413.845-.62 1.275l.233.063c-.05-.499-.01-1.022-.336-1.438-.065-.082-.18-.021-.21.055-.195.499-.345 1.016-.637 1.47l.229.03c-.098-.583-.048-1.179-.046-1.767 0-.161-.25-.161-.25 0Z"/>
  </g>
</svg>
