<?xml version="1.0" encoding="UTF-8"?>
<svg width="218px" height="313px" viewBox="0 0 218 313" version="1.1" xmlns="http://www.w3.org/2000/svg" xmlns:xlink="http://www.w3.org/1999/xlink">
    <title>poker_bg</title>
    <defs>
        <linearGradient x1="29.1639933%" y1="91.4255045%" x2="73.5394626%" y2="10.4105432%" id="linearGradient-1">
            <stop stop-color="#E6E7F0" offset="0%"></stop>
            <stop stop-color="#F5F6F7" offset="100%"></stop>
        </linearGradient>
        <linearGradient x1="7.64777151%" y1="-4.68542569%" x2="82.0017386%" y2="127.92319%" id="linearGradient-2">
            <stop stop-color="#EEEEEE" stop-opacity="0.138904065" offset="0%"></stop>
            <stop stop-color="#FFFFFF" stop-opacity="0.0712412587" offset="100%"></stop>
        </linearGradient>
    </defs>
    <g id="poker_bg" stroke="none" stroke-width="1" fill="none" fill-rule="evenodd">
        <g>
            <g id="Group-20-Copy">
                <rect id="Rectangle-Copy-7" fill="url(#linearGradient-1)" x="0" y="0" width="217.319884" height="313.495897" rx="3.58471575"></rect>
                <rect id="Rectangle-Copy-21" fill="#D74732" x="5.56697298" y="6.62872216" width="206.185938" height="300.085249" rx="3.58471575"></rect>
                <g id="Group-12-Copy" transform="translate(55.254948, 59.250068)" fill="#D74732" stroke="#E5F3F1" stroke-width="5.38981">
                    <path d="M0.223784121,101.501229 C39.685258,150.242899 60.4179614,176.223273 62.4218945,179.442351 C67.0641078,186.901339 61.9569061,194.13694 55.2955888,194.13694 C48.65824,194.13694 43.0381131,186.772868 47.5576079,179.442351 C50.2276024,175.112211 70.159758,149.15206 107.354074,101.561899 L107.354075,101.561899 C109.409835,98.9315525 109.378046,95.2303953 107.277408,92.6357479 C67.8159336,43.894054 47.0835397,17.913668 45.0802268,14.6945898 C40.4370547,7.23560185 45.5452151,0 52.2065324,0 C58.8438812,0 64.4630494,7.36407285 59.9435546,14.6945898 C57.2741801,19.0247295 37.342045,44.9848777 0.147149487,92.5750346 L0.147150253,92.5750352 C-1.90864208,95.2053821 -1.87686638,98.9065659 0.223784121,101.501229 Z" id="Stroke-2"></path>
                </g>
                <path d="M108.112482,164.779927 C108.302111,164.6094 108.505082,164.627094 108.730326,164.816748 C109.609136,165.556701 111.793009,167.520705 114.159252,169.780255 C114.257915,169.87447 114.180094,170.054629 114.03535,170.052317 L114.03535,170.052317 L102.556917,169.948808 C102.408412,169.946413 102.360334,169.745694 102.47384,169.644859 C104.7374,167.63399 107.199954,165.600533 108.112482,164.779927 Z M108.540198,135.100011 C113.449772,135.100011 117.429651,139.07989 117.429651,143.989464 C117.429651,145.320131 117.134983,146.579929 116.610922,147.712907 C116.541918,147.861173 116.708834,148.175424 116.86456,148.193141 C121.281778,148.709742 124.712419,152.455565 124.712419,157.011724 C124.712419,161.921298 120.73254,165.90211 115.822033,165.90211 C112.937833,165.90211 110.377209,164.52575 108.753739,162.395937 C108.62692,162.229953 108.151349,162.236481 108.022665,162.405262 C106.398262,164.52948 103.841367,165.90211 100.960897,165.90211 C96.0513234,165.90211 92.0705121,161.921298 92.0705121,157.011724 C92.0705121,152.365113 95.6382292,148.560543 100.182266,148.166099 C100.346385,148.151179 100.519828,147.823874 100.447094,147.664418 C99.9370204,146.543561 99.6498127,145.300549 99.6498127,143.989464 C99.6498127,139.07989 103.630624,135.100011 108.540198,135.100011 Z" id="Combined-Shape" fill="#F5F6F7"></path>
            </g>
            <polygon id="Path-2-Copy-3" fill="url(#linearGradient-2)" points="211.752911 57.0523395 4.54747351e-13 230.078617 4.54747351e-13 6.76955237e-14 211.752911 0"></polygon>
        </g>
    </g>
</svg>