<svg width="121" height="58" xmlns="http://www.w3.org/2000/svg"><defs><filter x="-10.7%" y="-7.3%" width="121.3%" height="114.7%" filterUnits="objectBoundingBox" id="a"><feOffset in="SourceAlpha" result="shadowOffsetOuter1"/><feGaussianBlur stdDeviation="2.5" in="shadowOffsetOuter1" result="shadowBlurOuter1"/><feColorMatrix values="0 0 0 0 0 0 0 0 0 0 0 0 0 0 0 0 0 0 0.3 0" in="shadowBlurOuter1" result="shadowMatrixOuter1"/><feMerge><feMergeNode in="shadowMatrixOuter1"/><feMergeNode in="SourceGraphic"/></feMerge></filter><filter x="-10.7%" y="-7.3%" width="121.3%" height="114.7%" filterUnits="objectBoundingBox" id="c"><feOffset in="SourceAlpha" result="shadowOffsetOuter1"/><feGaussianBlur stdDeviation="2.5" in="shadowOffsetOuter1" result="shadowBlurOuter1"/><feColorMatrix values="0 0 0 0 0 0 0 0 0 0 0 0 0 0 0 0 0 0 0.3 0" in="shadowBlurOuter1" result="shadowMatrixOuter1"/><feMerge><feMergeNode in="shadowMatrixOuter1"/><feMergeNode in="SourceGraphic"/></feMerge></filter><filter x="-10.7%" y="-7.3%" width="121.3%" height="114.7%" filterUnits="objectBoundingBox" id="d"><feOffset in="SourceAlpha" result="shadowOffsetOuter1"/><feGaussianBlur stdDeviation="2.5" in="shadowOffsetOuter1" result="shadowBlurOuter1"/><feColorMatrix values="0 0 0 0 0 0 0 0 0 0 0 0 0 0 0 0 0 0 0.3 0" in="shadowBlurOuter1" result="shadowMatrixOuter1"/><feMerge><feMergeNode in="shadowMatrixOuter1"/><feMergeNode in="SourceGraphic"/></feMerge></filter><filter x="-10.7%" y="-7.3%" width="121.3%" height="114.7%" filterUnits="objectBoundingBox" id="e"><feOffset in="SourceAlpha" result="shadowOffsetOuter1"/><feGaussianBlur stdDeviation="2.5" in="shadowOffsetOuter1" result="shadowBlurOuter1"/><feColorMatrix values="0 0 0 0 0 0 0 0 0 0 0 0 0 0 0 0 0 0 0.3 0" in="shadowBlurOuter1" result="shadowMatrixOuter1"/><feMerge><feMergeNode in="shadowMatrixOuter1"/><feMergeNode in="SourceGraphic"/></feMerge></filter><linearGradient x1="2.742%" y1="-4.685%" x2="85.709%" y2="127.923%" id="b"><stop stop-color="#EEE" stop-opacity=".139" offset="0%"/><stop stop-color="#FFF" stop-opacity=".071" offset="100%"/></linearGradient></defs><g fill="none" fill-rule="evenodd"><g filter="url(#a)" transform="translate(11.305 -94.099)"><rect stroke="#FFF" stroke-width="4.5" fill="#EC5148" x="2.25" y="3.146" width="93.889" height="137.901" rx="9"/><path d="M27.067 75.176c16.487 20.152 25.157 30.906 26.01 32.261 2.013 3.2-.202 6.304-3.091 6.304-2.879 0-5.316-3.159-3.356-6.304 1.135-1.821 9.466-12.562 24.991-32.222a4.95 4.95 0 0 0-.054-6.2c-16.49-20.151-25.159-30.905-26.011-32.26-2.014-3.2.201-6.305 3.09-6.305 2.879 0 5.316 3.16 3.356 6.305-1.135 1.821-9.466 12.562-24.992 32.222a4.95 4.95 0 0 0 .055 6.2Z" stroke="#FFF" stroke-width="1.65" fill="#E15035"/><path d="M49.497 78.663c.098-.092.204-.083.321.02.458.398 1.595 1.455 2.827 2.67.051.051.01.148-.065.147l-5.976-.056c-.077-.001-.102-.11-.043-.163 1.178-1.083 2.46-2.177 2.936-2.618Zm.222-15.97c2.556 0 4.629 2.14 4.629 4.782 0 .717-.154 1.394-.427 2.004-.036.08.051.249.132.258 2.3.278 4.086 2.294 4.086 4.746 0 2.642-2.072 4.784-4.628 4.784-1.502 0-2.835-.741-3.68-1.887-.066-.09-.314-.086-.381.005-.846 1.143-2.177 1.882-3.677 1.882-2.556 0-4.628-2.142-4.628-4.784 0-2.5 1.857-4.548 4.223-4.76.085-.008.176-.184.138-.27a4.896 4.896 0 0 1-.415-1.978c0-2.641 2.072-4.783 4.628-4.783Z" fill="#FFF"/><path fill="url(#b)" d="M98.389 28.215 0 101.203V0h98.389z"/></g><g filter="url(#c)" transform="translate(11.305 -98.099)"><rect stroke="#FFF" stroke-width="4.5" fill="#EC5148" x="2.25" y="3.146" width="93.889" height="137.901" rx="9"/><path d="M27.067 75.176c16.487 20.152 25.157 30.906 26.01 32.261 2.013 3.2-.202 6.304-3.091 6.304-2.879 0-5.316-3.159-3.356-6.304 1.135-1.821 9.466-12.562 24.991-32.222a4.95 4.95 0 0 0-.054-6.2c-16.49-20.151-25.159-30.905-26.011-32.26-2.014-3.2.201-6.305 3.09-6.305 2.879 0 5.316 3.16 3.356 6.305-1.135 1.821-9.466 12.562-24.992 32.222a4.95 4.95 0 0 0 .055 6.2Z" stroke="#FFF" stroke-width="1.65" fill="#E15035"/><path d="M49.497 78.663c.098-.092.204-.083.321.02.458.398 1.595 1.455 2.827 2.67.051.051.01.148-.065.147l-5.976-.056c-.077-.001-.102-.11-.043-.163 1.178-1.083 2.46-2.177 2.936-2.618Zm.222-15.97c2.556 0 4.629 2.14 4.629 4.782 0 .717-.154 1.394-.427 2.004-.036.08.051.249.132.258 2.3.278 4.086 2.294 4.086 4.746 0 2.642-2.072 4.784-4.628 4.784-1.502 0-2.835-.741-3.68-1.887-.066-.09-.314-.086-.381.005-.846 1.143-2.177 1.882-3.677 1.882-2.556 0-4.628-2.142-4.628-4.784 0-2.5 1.857-4.548 4.223-4.76.085-.008.176-.184.138-.27a4.896 4.896 0 0 1-.415-1.978c0-2.641 2.072-4.783 4.628-4.783Z" fill="#FFF"/><path fill="url(#b)" d="M98.389 28.215 0 101.203V0h98.389z"/></g><g filter="url(#d)" transform="translate(11.305 -102.099)"><rect stroke="#FFF" stroke-width="4.5" fill="#EC5148" x="2.25" y="3.146" width="93.889" height="137.901" rx="9"/><path d="M27.067 75.176c16.487 20.152 25.157 30.906 26.01 32.261 2.013 3.2-.202 6.304-3.091 6.304-2.879 0-5.316-3.159-3.356-6.304 1.135-1.821 9.466-12.562 24.991-32.222a4.95 4.95 0 0 0-.054-6.2c-16.49-20.151-25.159-30.905-26.011-32.26-2.014-3.2.201-6.305 3.09-6.305 2.879 0 5.316 3.16 3.356 6.305-1.135 1.821-9.466 12.562-24.992 32.222a4.95 4.95 0 0 0 .055 6.2Z" stroke="#FFF" stroke-width="1.65" fill="#E15035"/><path d="M49.497 78.663c.098-.092.204-.083.321.02.458.398 1.595 1.455 2.827 2.67.051.051.01.148-.065.147l-5.976-.056c-.077-.001-.102-.11-.043-.163 1.178-1.083 2.46-2.177 2.936-2.618Zm.222-15.97c2.556 0 4.629 2.14 4.629 4.782 0 .717-.154 1.394-.427 2.004-.036.08.051.249.132.258 2.3.278 4.086 2.294 4.086 4.746 0 2.642-2.072 4.784-4.628 4.784-1.502 0-2.835-.741-3.68-1.887-.066-.09-.314-.086-.381.005-.846 1.143-2.177 1.882-3.677 1.882-2.556 0-4.628-2.142-4.628-4.784 0-2.5 1.857-4.548 4.223-4.76.085-.008.176-.184.138-.27a4.896 4.896 0 0 1-.415-1.978c0-2.641 2.072-4.783 4.628-4.783Z" fill="#FFF"/><path fill="url(#b)" d="M98.389 28.215 0 101.203V0h98.389z"/></g><g filter="url(#e)" transform="translate(11.305 -106.099)"><rect stroke="#FFF" stroke-width="4.5" fill="#EC5148" x="2.25" y="3.146" width="93.889" height="137.901" rx="9"/><path d="M27.067 75.176c16.487 20.152 25.157 30.906 26.01 32.261 2.013 3.2-.202 6.304-3.091 6.304-2.879 0-5.316-3.159-3.356-6.304 1.135-1.821 9.466-12.562 24.991-32.222a4.95 4.95 0 0 0-.054-6.2c-16.49-20.151-25.159-30.905-26.011-32.26-2.014-3.2.201-6.305 3.09-6.305 2.879 0 5.316 3.16 3.356 6.305-1.135 1.821-9.466 12.562-24.992 32.222a4.95 4.95 0 0 0 .055 6.2Z" stroke="#FFF" stroke-width="1.65" fill="#E15035"/><path d="M49.497 78.663c.098-.092.204-.083.321.02.458.398 1.595 1.455 2.827 2.67.051.051.01.148-.065.147l-5.976-.056c-.077-.001-.102-.11-.043-.163 1.178-1.083 2.46-2.177 2.936-2.618Zm.222-15.97c2.556 0 4.629 2.14 4.629 4.782 0 .717-.154 1.394-.427 2.004-.036.08.051.249.132.258 2.3.278 4.086 2.294 4.086 4.746 0 2.642-2.072 4.784-4.628 4.784-1.502 0-2.835-.741-3.68-1.887-.066-.09-.314-.086-.381.005-.846 1.143-2.177 1.882-3.677 1.882-2.556 0-4.628-2.142-4.628-4.784 0-2.5 1.857-4.548 4.223-4.76.085-.008.176-.184.138-.27a4.896 4.896 0 0 1-.415-1.978c0-2.641 2.072-4.783 4.628-4.783Z" fill="#FFF"/><path fill="url(#b)" d="M98.389 28.215 0 101.203V0h98.389z"/></g></g></svg>