<svg width="512" height="512" xmlns="http://www.w3.org/2000/svg"><defs><linearGradient x1="14.38%" y1="50%" x2="100%" y2="50%" id="a"><stop stop-color="#15FF73" offset="0%"/><stop stop-color="#21FC79" offset="100%"/></linearGradient><linearGradient x1="100%" y1="50%" x2="1.644%" y2="50%" id="b"><stop stop-color="#FF7E2E" offset="0%"/><stop stop-color="#FF9237" offset="100%"/></linearGradient><linearGradient x1="0%" y1="48.565%" x2="100%" y2="50.687%" id="c"><stop stop-color="#D2DEF8" offset="0%"/><stop stop-color="#CAE0F8" offset="100%"/></linearGradient><linearGradient x1="0%" y1="50%" x2="98.711%" y2="50%" id="d"><stop stop-color="#85F" offset="0%"/><stop stop-color="#A956FF" offset="100%"/></linearGradient></defs><g fill="none" fill-rule="evenodd"><path d="M239.011.56a258.094 258.094 0 0133.978 0A3.223 3.223 0 01276 3.777a2.792 2.792 0 01-2.976 2.786 257.762 257.762 0 00-34.048 0A2.792 2.792 0 01236 3.777 3.223 3.223 0 01239.011.56z" fill="url(#a)" transform="translate(-.388)"/><path d="M288.293 5.414a258.094 258.094 0 0133.978 0 3.223 3.223 0 013.011 3.216 2.792 2.792 0 01-2.976 2.786 257.762 257.762 0 00-34.048 0 2.792 2.792 0 01-2.976-2.786 3.223 3.223 0 013.011-3.216z" fill="url(#b)" transform="rotate(11 305.088 6.226)"/><path d="M335.681 19.79a258.094 258.094 0 0133.978 0 3.223 3.223 0 013.011 3.216 2.792 2.792 0 01-2.976 2.785 257.762 257.762 0 00-34.047 0 2.792 2.792 0 01-2.977-2.785 3.223 3.223 0 013.011-3.217z" fill="url(#c)" transform="rotate(23 352.476 21.663)"/><path d="M379.355 43.133a258.094 258.094 0 0133.978 0 3.223 3.223 0 013.01 3.216 2.792 2.792 0 01-2.976 2.786 257.762 257.762 0 00-34.047 0 2.792 2.792 0 01-2.976-2.786 3.223 3.223 0 013.01-3.216z" fill="url(#d)" transform="rotate(34 396.15 45.326)"/><path d="M417.634 74.549a258.094 258.094 0 0133.978 0 3.223 3.223 0 013.011 3.216 2.792 2.792 0 01-2.976 2.786 257.762 257.762 0 00-34.047 0 2.792 2.792 0 01-2.977-2.786 3.223 3.223 0 013.011-3.216z" fill="url(#c)" transform="rotate(45 434.43 76.908)"/><path d="M449.05 112.829a258.094 258.094 0 0133.978 0 3.223 3.223 0 013.01 3.216 2.792 2.792 0 01-2.975 2.786 257.763 257.763 0 00-34.048 0 2.792 2.792 0 01-2.976-2.786 3.223 3.223 0 013.011-3.216z" fill="url(#d)" transform="rotate(56 465.845 115.291)"/><path d="M472.394 156.502a258.094 258.094 0 0133.978 0 3.223 3.223 0 013.01 3.216 2.792 2.792 0 01-2.975 2.786 257.762 257.762 0 00-34.048 0 2.792 2.792 0 01-2.976-2.786 3.223 3.223 0 013.01-3.216z" fill="url(#c)" transform="rotate(68 489.189 159.042)"/><path d="M486.769 203.89a258.094 258.094 0 0133.978 0 3.223 3.223 0 013.01 3.216 2.792 2.792 0 01-2.975 2.786 257.763 257.763 0 00-34.048 0 2.792 2.792 0 01-2.976-2.786 3.223 3.223 0 013.01-3.216z" fill="url(#d)" transform="rotate(79 503.564 206.482)"/><path d="M491.623 253.172a258.095 258.095 0 0133.978 0 3.223 3.223 0 013.01 3.216 2.792 2.792 0 01-2.976 2.786 257.762 257.762 0 00-34.047 0 2.792 2.792 0 01-2.976-2.786 3.223 3.223 0 013.01-3.216z" fill="url(#c)" transform="rotate(90 508.418 255.806)"/><path d="M486.769 302.454a258.095 258.095 0 0133.978 0 3.223 3.223 0 013.01 3.216 2.792 2.792 0 01-2.975 2.786 257.762 257.762 0 00-34.048 0 2.792 2.792 0 01-2.976-2.786 3.223 3.223 0 013.01-3.216z" fill="url(#b)" transform="rotate(101 503.564 305.122)"/><path d="M472.394 349.842a258.094 258.094 0 0133.978 0 3.223 3.223 0 013.01 3.217 2.792 2.792 0 01-2.975 2.786 257.763 257.763 0 00-34.048 0 2.792 2.792 0 01-2.976-2.786 3.223 3.223 0 013.01-3.217z" fill="url(#c)" transform="rotate(113 489.189 352.542)"/><path d="M449.05 393.516a258.095 258.095 0 0133.978 0 3.223 3.223 0 013.01 3.216 2.792 2.792 0 01-2.975 2.786 257.762 257.762 0 00-34.048 0 2.792 2.792 0 01-2.976-2.786 3.223 3.223 0 013.011-3.216z" fill="url(#b)" transform="rotate(124 465.845 396.24)"/><path d="M417.634 431.796a258.094 258.094 0 0133.978 0 3.223 3.223 0 013.011 3.216 2.792 2.792 0 01-2.976 2.786 257.763 257.763 0 00-34.047 0 2.792 2.792 0 01-2.977-2.786 3.223 3.223 0 013.011-3.216z" fill="url(#c)" transform="rotate(135 434.43 434.543)"/><path d="M379.355 463.211a258.094 258.094 0 0133.978 0 3.223 3.223 0 013.01 3.216 2.792 2.792 0 01-2.976 2.786 257.763 257.763 0 00-34.047 0 2.792 2.792 0 01-2.976-2.786 3.223 3.223 0 013.01-3.216z" fill="url(#d)" transform="rotate(146 396.15 465.98)"/><path d="M335.681 486.555a258.094 258.094 0 0133.978 0 3.223 3.223 0 013.011 3.216 2.792 2.792 0 01-2.976 2.786 257.763 257.763 0 00-34.047 0 2.792 2.792 0 01-2.977-2.786 3.223 3.223 0 013.011-3.216z" fill="url(#c)" transform="rotate(158 352.476 489.345)"/><path d="M288.293 500.93a258.094 258.094 0 0133.978 0 3.223 3.223 0 013.011 3.216 2.792 2.792 0 01-2.976 2.786 257.763 257.763 0 00-34.048 0 2.792 2.792 0 01-2.976-2.786 3.223 3.223 0 013.011-3.216z" fill="url(#d)" transform="rotate(169 305.088 503.74)"/><path d="M239.011 505.784a258.094 258.094 0 0133.978 0A3.223 3.223 0 01276 509a2.792 2.792 0 01-2.976 2.786 257.763 257.763 0 00-34.048 0A2.792 2.792 0 01236 509a3.223 3.223 0 013.011-3.216z" fill="url(#c)" transform="rotate(180 255.806 508.612)"/><path d="M189.729 500.93a258.094 258.094 0 0133.978 0 3.223 3.223 0 013.01 3.216 2.792 2.792 0 01-2.975 2.786 257.763 257.763 0 00-34.048 0 2.792 2.792 0 01-2.976-2.786 3.223 3.223 0 013.011-3.216z" fill="url(#d)" transform="rotate(-169 206.524 503.777)"/><path d="M142.34 486.555a258.094 258.094 0 0133.979 0 3.223 3.223 0 013.01 3.216 2.792 2.792 0 01-2.976 2.786 257.763 257.763 0 00-34.047 0 2.792 2.792 0 01-2.976-2.786 3.223 3.223 0 013.01-3.216z" fill="url(#c)" transform="rotate(-157 159.136 489.422)"/><path d="M98.668 463.211a258.094 258.094 0 0133.977 0 3.223 3.223 0 013.011 3.216 2.792 2.792 0 01-2.976 2.786 257.763 257.763 0 00-34.047 0 2.792 2.792 0 01-2.977-2.786 3.223 3.223 0 013.012-3.216z" fill="url(#d)" transform="rotate(-146 115.462 466.098)"/><path d="M60.388 431.796a258.094 258.094 0 0133.978 0 3.223 3.223 0 013.01 3.216 2.792 2.792 0 01-2.976 2.786 257.763 257.763 0 00-34.047 0 2.792 2.792 0 01-2.976-2.786 3.223 3.223 0 013.01-3.216z" fill="url(#c)" transform="rotate(-135 77.182 434.704)"/><path d="M28.972 393.516a258.095 258.095 0 0133.978 0 3.223 3.223 0 013.011 3.216 2.792 2.792 0 01-2.976 2.786 257.762 257.762 0 00-34.048 0 2.792 2.792 0 01-2.976-2.786 3.223 3.223 0 013.011-3.216z" fill="url(#b)" transform="rotate(-124 45.767 396.447)"/><path d="M5.628 349.842a258.094 258.094 0 0133.978 0 3.223 3.223 0 013.011 3.217 2.792 2.792 0 01-2.976 2.786 257.763 257.763 0 00-34.047 0 2.792 2.792 0 01-2.977-2.786 3.223 3.223 0 013.011-3.217z" fill="url(#c)" transform="rotate(-113 22.423 352.799)"/><path d="M-8.747 302.454a258.095 258.095 0 0133.978 0 3.223 3.223 0 013.011 3.216 2.792 2.792 0 01-2.976 2.786 257.762 257.762 0 00-34.047 0 2.792 2.792 0 01-2.977-2.786 3.223 3.223 0 013.011-3.216z" fill="url(#b)" transform="rotate(-101 8.048 305.442)"/><path d="M-13.6 253.172a258.095 258.095 0 0133.977 0 3.223 3.223 0 013.011 3.216 2.792 2.792 0 01-2.976 2.786 257.762 257.762 0 00-34.047 0 2.792 2.792 0 01-2.977-2.786 3.223 3.223 0 013.011-3.216z" fill="url(#c)" transform="rotate(-90 3.194 256.194)"/><path d="M-8.747 203.89a258.094 258.094 0 0133.978 0 3.223 3.223 0 013.011 3.216 2.792 2.792 0 01-2.976 2.786 257.763 257.763 0 00-34.047 0 2.792 2.792 0 01-2.977-2.786 3.223 3.223 0 013.011-3.216z" fill="url(#d)" transform="rotate(-79 8.048 206.953)"/><path d="M5.628 156.502a258.094 258.094 0 0133.978 0 3.223 3.223 0 013.011 3.216 2.792 2.792 0 01-2.976 2.786 257.762 257.762 0 00-34.047 0 2.792 2.792 0 01-2.977-2.786 3.223 3.223 0 013.011-3.216z" fill="url(#c)" transform="rotate(-67 22.423 159.623)"/><path d="M28.972 112.829a258.094 258.094 0 0133.978 0 3.223 3.223 0 013.011 3.216 2.792 2.792 0 01-2.976 2.786 257.763 257.763 0 00-34.048 0 2.792 2.792 0 01-2.976-2.786 3.223 3.223 0 013.011-3.216z" fill="url(#d)" transform="rotate(-56 45.767 116.022)"/><path d="M60.388 74.549a258.094 258.094 0 0133.978 0 3.223 3.223 0 013.01 3.216A2.792 2.792 0 0194.4 80.55a257.762 257.762 0 00-34.047 0 2.792 2.792 0 01-2.976-2.786 3.223 3.223 0 013.01-3.216z" fill="url(#c)" transform="rotate(-45 77.182 77.845)"/><path d="M98.668 43.133a258.094 258.094 0 0133.977 0 3.223 3.223 0 013.011 3.216 2.792 2.792 0 01-2.976 2.786 257.762 257.762 0 00-34.047 0 2.792 2.792 0 01-2.977-2.786 3.223 3.223 0 013.012-3.216z" fill="url(#d)" transform="rotate(-34 115.462 46.596)"/><path d="M142.34 19.79a258.094 258.094 0 0133.979 0 3.223 3.223 0 013.01 3.216 2.792 2.792 0 01-2.976 2.785 257.762 257.762 0 00-34.047 0 2.792 2.792 0 01-2.976-2.785 3.223 3.223 0 013.01-3.217z" fill="url(#c)" transform="rotate(-22 159.136 23.616)"/><path d="M189.729 5.414a258.094 258.094 0 0133.978 0 3.223 3.223 0 013.01 3.216 2.792 2.792 0 01-2.975 2.786 257.762 257.762 0 00-34.048 0 2.792 2.792 0 01-2.976-2.786 3.223 3.223 0 013.011-3.216z" fill="url(#b)" transform="rotate(-11 206.524 10.259)"/></g></svg>