<svg width="512" height="512" xmlns="http://www.w3.org/2000/svg"><defs><linearGradient x1="50%" y1="0%" x2="50%" y2="100%" id="a"><stop stop-color="#458802" offset="0%"/><stop stop-color="#7BC514" offset="100%"/></linearGradient><linearGradient x1="50%" y1="0%" x2="50%" y2="100%" id="b"><stop stop-color="#ED6300" offset="0%"/><stop stop-color="#FF832B" offset="100%"/></linearGradient><linearGradient x1="50%" y1="0%" x2="50%" y2="100%" id="c"><stop stop-color="#778EA6" offset="0%"/><stop stop-color="#99A4B0" offset="100%"/></linearGradient><linearGradient x1="50%" y1="0%" x2="50%" y2="100%" id="d"><stop stop-color="#751DE2" offset="0%"/><stop stop-color="#7625FE" offset="100%"/></linearGradient><linearGradient x1="50%" y1="0%" x2="50%" y2="100%" id="e"><stop stop-color="#778EA6" offset="0%"/><stop stop-color="#99A4B0" offset="100%"/></linearGradient><linearGradient x1="50%" y1="0%" x2="50%" y2="100%" id="f"><stop stop-color="#751DE2" offset="0%"/><stop stop-color="#7625FE" offset="100%"/></linearGradient><linearGradient x1="50%" y1="0%" x2="50%" y2="100%" id="g"><stop stop-color="#778EA6" offset="0%"/><stop stop-color="#99A4B0" offset="100%"/></linearGradient><linearGradient x1="50%" y1="0%" x2="50%" y2="100%" id="h"><stop stop-color="#751DE2" offset="0%"/><stop stop-color="#7625FE" offset="100%"/></linearGradient><linearGradient x1="50%" y1="0%" x2="50%" y2="100%" id="i"><stop stop-color="#778EA6" offset="0%"/><stop stop-color="#99A4B0" offset="100%"/></linearGradient><linearGradient x1="50%" y1="0%" x2="50%" y2="100%" id="j"><stop stop-color="#ED6300" offset="0%"/><stop stop-color="#FF832B" offset="100%"/></linearGradient><linearGradient x1="50%" y1="0%" x2="50%" y2="100%" id="k"><stop stop-color="#778EA6" offset="0%"/><stop stop-color="#99A4B0" offset="100%"/></linearGradient><linearGradient x1="50%" y1="0%" x2="50%" y2="100%" id="l"><stop stop-color="#ED6300" offset="0%"/><stop stop-color="#FF832B" offset="100%"/></linearGradient><linearGradient x1="50%" y1="0%" x2="50%" y2="100%" id="m"><stop stop-color="#778EA6" offset="0%"/><stop stop-color="#99A4B0" offset="100%"/></linearGradient><linearGradient x1="50%" y1="0%" x2="50%" y2="100%" id="n"><stop stop-color="#751DE2" offset="0%"/><stop stop-color="#7625FE" offset="100%"/></linearGradient><linearGradient x1="50%" y1="0%" x2="50%" y2="100%" id="o"><stop stop-color="#778EA6" offset="0%"/><stop stop-color="#99A4B0" offset="100%"/></linearGradient><linearGradient x1="50%" y1="0%" x2="50%" y2="100%" id="p"><stop stop-color="#751DE2" offset="0%"/><stop stop-color="#7625FE" offset="100%"/></linearGradient><linearGradient x1="50%" y1="0%" x2="50%" y2="100%" id="q"><stop stop-color="#778EA6" offset="0%"/><stop stop-color="#99A4B0" offset="100%"/></linearGradient><linearGradient x1="50%" y1="0%" x2="50%" y2="100%" id="r"><stop stop-color="#751DE2" offset="0%"/><stop stop-color="#7625FE" offset="100%"/></linearGradient><linearGradient x1="50%" y1="0%" x2="50%" y2="100%" id="s"><stop stop-color="#ED6300" offset="0%"/><stop stop-color="#FF832B" offset="100%"/></linearGradient><linearGradient x1="50%" y1="0%" x2="50%" y2="100%" id="t"><stop stop-color="#778EA6" offset="0%"/><stop stop-color="#99A4B0" offset="100%"/></linearGradient><linearGradient x1="50%" y1="0%" x2="50%" y2="100%" id="u"><stop stop-color="#ED6300" offset="0%"/><stop stop-color="#FF832B" offset="100%"/></linearGradient><linearGradient x1="50%" y1="0%" x2="50%" y2="100%" id="v"><stop stop-color="#751DE2" offset="0%"/><stop stop-color="#7625FE" offset="100%"/></linearGradient><linearGradient x1="50%" y1="0%" x2="50%" y2="100%" id="w"><stop stop-color="#751DE2" offset="0%"/><stop stop-color="#7625FE" offset="100%"/></linearGradient><linearGradient x1="50%" y1="0%" x2="50%" y2="100%" id="x"><stop stop-color="#ED6300" offset="0%"/><stop stop-color="#FF832B" offset="100%"/></linearGradient></defs><g fill="none" fill-rule="evenodd"><path d="M239.162.56a257.09 257.09 0 0133.9 0 3.224 3.224 0 013.01 3.217 2.792 2.792 0 01-2.976 2.785 256.76 256.76 0 00-33.97 0 2.792 2.792 0 01-2.976-2.785A3.224 3.224 0 01239.162.56z" fill="url(#a)"/><path d="M288.344 5.408a257.132 257.132 0 0133.903.012 3.226 3.226 0 013.012 3.218 2.79 2.79 0 01-2.974 2.784 256.833 256.833 0 00-33.973-.012 2.794 2.794 0 01-2.977-2.787 3.221 3.221 0 013.01-3.215z" fill="url(#b)" transform="rotate(11 305.297 8.246)"/><path d="M335.632 19.778a257.306 257.306 0 0133.914.023 3.227 3.227 0 013.012 3.218 2.787 2.787 0 01-2.973 2.783 257.025 257.025 0 00-33.984-.024 2.795 2.795 0 01-2.977-2.787 3.218 3.218 0 013.008-3.213z" fill="url(#c)" transform="rotate(23 352.59 22.624)"/><path d="M379.21 43.118a257.515 257.515 0 0133.928.03 3.227 3.227 0 013.012 3.218 2.785 2.785 0 01-2.972 2.781 257.276 257.276 0 00-33.997-.03 2.795 2.795 0 01-2.977-2.787 3.216 3.216 0 013.006-3.212z" fill="url(#d)" transform="rotate(34 396.177 45.969)"/><path d="M417.405 74.532a257.794 257.794 0 0133.945.033 3.226 3.226 0 013.01 3.216 2.784 2.784 0 01-2.97 2.78 257.562 257.562 0 00-34.014-.032 2.795 2.795 0 01-2.976-2.787 3.214 3.214 0 013.005-3.21z" fill="url(#e)" transform="rotate(45 434.38 77.384)"/><path d="M448.75 112.813a258.08 258.08 0 0133.962.031 3.225 3.225 0 013.01 3.215 2.783 2.783 0 01-2.97 2.78 257.84 257.84 0 00-34.03-.031 2.794 2.794 0 01-2.976-2.785 3.213 3.213 0 013.004-3.21z" fill="url(#f)" transform="rotate(56 465.734 115.662)"/><path d="M472.043 156.491a258.37 258.37 0 0133.977.023 3.222 3.222 0 013.008 3.213 2.784 2.784 0 01-2.97 2.78 258.087 258.087 0 00-34.046-.023 2.792 2.792 0 01-2.973-2.784 3.213 3.213 0 013.004-3.209z" fill="url(#g)" transform="rotate(68 489.033 159.332)"/><path d="M486.389 203.887a258.529 258.529 0 0133.986.012 3.22 3.22 0 013.006 3.211 2.785 2.785 0 01-2.97 2.78 258.228 258.228 0 00-34.055-.012 2.79 2.79 0 01-2.972-2.783 3.214 3.214 0 013.005-3.208z" fill="url(#h)" transform="rotate(79 503.383 206.719)"/><path d="M491.236 253.178a258.597 258.597 0 0133.99 0 3.217 3.217 0 013.005 3.21 2.787 2.787 0 01-2.97 2.78 258.264 258.264 0 00-34.06 0 2.787 2.787 0 01-2.97-2.78 3.216 3.216 0 013.005-3.21z" fill="url(#i)" transform="rotate(90 508.23 256)"/><path d="M486.39 302.462a258.566 258.566 0 0133.987-.013 3.214 3.214 0 013.004 3.209 2.79 2.79 0 01-2.972 2.782 258.19 258.19 0 00-34.055.013 2.785 2.785 0 01-2.97-2.78 3.22 3.22 0 013.007-3.211z" fill="url(#j)" transform="rotate(101 503.383 305.281)"/><path d="M472.047 349.85a258.424 258.424 0 0133.976-.025 3.213 3.213 0 013.004 3.209 2.792 2.792 0 01-2.974 2.784 257.998 257.998 0 00-34.045.024 2.784 2.784 0 01-2.97-2.78 3.222 3.222 0 013.009-3.213z" fill="url(#k)" transform="rotate(113 489.033 352.667)"/><path d="M448.755 393.52a258.172 258.172 0 0133.962-.03 3.213 3.213 0 013.005 3.209 2.793 2.793 0 01-2.976 2.785 257.747 257.747 0 00-34.03.031 2.784 2.784 0 01-2.97-2.78 3.225 3.225 0 013.01-3.214z" fill="url(#l)" transform="rotate(124 465.734 396.338)"/><path d="M417.41 431.798a257.893 257.893 0 0133.945-.033 3.214 3.214 0 013.006 3.21 2.795 2.795 0 01-2.977 2.786 257.462 257.462 0 00-34.014.034 2.784 2.784 0 01-2.97-2.78 3.226 3.226 0 013.01-3.217z" fill="url(#m)" transform="rotate(135 434.38 434.616)"/><path d="M379.215 463.211a257.608 257.608 0 0133.928-.03 3.216 3.216 0 013.007 3.211 2.795 2.795 0 01-2.977 2.787 257.184 257.184 0 00-33.998.031 2.785 2.785 0 01-2.971-2.782 3.227 3.227 0 013.011-3.217z" fill="url(#n)" transform="rotate(146 396.177 466.031)"/><path d="M335.637 486.554a257.357 257.357 0 0133.912-.023 3.218 3.218 0 013.009 3.213 2.795 2.795 0 01-2.978 2.787 256.936 256.936 0 00-33.982.024 2.787 2.787 0 01-2.973-2.784 3.227 3.227 0 013.012-3.217z" fill="url(#o)" transform="rotate(158 352.591 489.376)"/><path d="M288.346 500.929a257.17 257.17 0 0133.904-.013 3.221 3.221 0 013.01 3.216 2.794 2.794 0 01-2.978 2.786 256.796 256.796 0 00-33.973.013 2.79 2.79 0 01-2.974-2.785 3.226 3.226 0 013.011-3.217z" fill="url(#p)" transform="rotate(169 305.297 503.754)"/><path d="M239.162 505.783a257.09 257.09 0 0133.9 0 3.224 3.224 0 013.01 3.217 2.792 2.792 0 01-2.976 2.786 256.76 256.76 0 00-33.97 0A2.792 2.792 0 01236.15 509a3.224 3.224 0 013.012-3.217z" fill="url(#q)" transform="rotate(180 256.111 508.612)"/><path d="M189.973 500.916a257.133 257.133 0 0133.903.013 3.226 3.226 0 013.012 3.217 2.79 2.79 0 01-2.974 2.784 256.833 256.833 0 00-33.973-.012 2.794 2.794 0 01-2.977-2.786 3.221 3.221 0 013.01-3.216z" fill="url(#r)" transform="rotate(-169 206.926 503.754)"/><path d="M142.673 486.53a257.306 257.306 0 0133.914.024 3.227 3.227 0 013.012 3.217 2.787 2.787 0 01-2.973 2.783 257.025 257.025 0 00-33.983-.023 2.795 2.795 0 01-2.978-2.788 3.218 3.218 0 013.008-3.213z" fill="url(#c)" transform="rotate(-157 159.632 489.376)"/><path d="M99.08 463.18a257.515 257.515 0 0133.928.031 3.227 3.227 0 013.011 3.217 2.785 2.785 0 01-2.971 2.782 257.277 257.277 0 00-33.998-.03 2.795 2.795 0 01-2.977-2.788 3.216 3.216 0 013.007-3.211z" fill="url(#d)" transform="rotate(-146 116.046 466.031)"/><path d="M60.868 431.765a257.793 257.793 0 0133.944.033 3.226 3.226 0 013.011 3.216 2.784 2.784 0 01-2.97 2.78 257.561 257.561 0 00-34.014-.033 2.795 2.795 0 01-2.977-2.786 3.214 3.214 0 013.006-3.21z" fill="url(#e)" transform="rotate(-135 77.843 434.616)"/><path d="M29.506 393.49a258.08 258.08 0 0133.962.03 3.225 3.225 0 013.009 3.215 2.783 2.783 0 01-2.97 2.78 257.84 257.84 0 00-34.03-.03 2.794 2.794 0 01-2.976-2.786 3.213 3.213 0 013.005-3.21z" fill="url(#s)" transform="rotate(-124 46.49 396.338)"/><path d="M6.2 349.825a258.352 258.352 0 0133.976.024 3.222 3.222 0 013.008 3.213 2.784 2.784 0 01-2.97 2.78 258.071 258.071 0 00-34.044-.024 2.792 2.792 0 01-2.974-2.784 3.213 3.213 0 013.004-3.209z" fill="url(#t)" transform="rotate(-113 23.19 352.667)"/><path d="M-8.154 302.45a258.529 258.529 0 0133.986.012 3.22 3.22 0 013.007 3.21 2.785 2.785 0 01-2.97 2.78 258.228 258.228 0 00-34.055-.012 2.79 2.79 0 01-2.972-2.782 3.214 3.214 0 013.004-3.209z" fill="url(#u)" transform="rotate(-101 8.84 305.281)"/><path d="M-13.003 253.178a258.597 258.597 0 0133.99 0 3.217 3.217 0 013.005 3.21 2.787 2.787 0 01-2.97 2.78 258.264 258.264 0 00-34.06 0 2.787 2.787 0 01-2.97-2.78 3.216 3.216 0 013.005-3.21z" fill="url(#i)" transform="rotate(-90 3.992 256)"/><path d="M-8.152 203.9a258.566 258.566 0 0133.986-.013 3.214 3.214 0 013.005 3.208 2.79 2.79 0 01-2.972 2.782 258.19 258.19 0 00-34.056.013 2.785 2.785 0 01-2.97-2.78 3.22 3.22 0 013.007-3.21z" fill="url(#v)" transform="rotate(-79 8.84 206.719)"/><path d="M6.204 156.515a258.424 258.424 0 0133.976-.024 3.213 3.213 0 013.004 3.208 2.792 2.792 0 01-2.974 2.784 257.998 257.998 0 00-34.045.024 2.784 2.784 0 01-2.97-2.78 3.222 3.222 0 013.009-3.212z" fill="url(#k)" transform="rotate(-67 23.19 159.333)"/><path d="M29.511 112.844a258.172 258.172 0 0133.962-.03 3.213 3.213 0 013.004 3.209 2.793 2.793 0 01-2.975 2.784 257.747 257.747 0 00-34.031.032 2.784 2.784 0 01-2.97-2.78 3.225 3.225 0 013.01-3.215z" fill="url(#w)" transform="rotate(-56 46.49 115.662)"/><path d="M60.873 74.565a257.893 257.893 0 0133.945-.033 3.214 3.214 0 013.005 3.21 2.795 2.795 0 01-2.976 2.786 257.462 257.462 0 00-34.014.034 2.784 2.784 0 01-2.97-2.78 3.226 3.226 0 013.01-3.217z" fill="url(#m)" transform="rotate(-45 77.843 77.384)"/><path d="M99.085 43.149a257.607 257.607 0 0133.928-.031 3.216 3.216 0 013.006 3.212 2.795 2.795 0 01-2.977 2.786 257.184 257.184 0 00-33.997.031 2.785 2.785 0 01-2.972-2.781 3.227 3.227 0 013.012-3.217z" fill="url(#n)" transform="rotate(-34 116.046 45.969)"/><path d="M142.678 19.801a257.356 257.356 0 0133.912-.023 3.218 3.218 0 013.008 3.213 2.795 2.795 0 01-2.977 2.787 256.937 256.937 0 00-33.982.024 2.787 2.787 0 01-2.974-2.783 3.227 3.227 0 013.013-3.218z" fill="url(#o)" transform="rotate(-22 159.632 22.624)"/><path d="M189.975 5.42a257.17 257.17 0 0133.904-.012 3.221 3.221 0 013.01 3.215 2.794 2.794 0 01-2.978 2.787 256.796 256.796 0 00-33.973.012 2.79 2.79 0 01-2.974-2.784 3.226 3.226 0 013.011-3.218z" fill="url(#x)" transform="rotate(-11 206.926 8.246)"/></g></svg>