<svg width="14" height="14" viewBox="0 0 14 14" fill="none" xmlns="http://www.w3.org/2000/svg">
<path d="M6.89493 0.0209921L1.42298 2.21117C1.31802 2.25315 1.24805 2.35812 1.24805 2.47707V6.89242C1.24805 10.0482 3.30528 12.6443 6.31415 13.8058C6.99989 14.0647 7.01388 14.0647 7.69963 13.8058C10.7155 12.6513 12.7657 10.0482 12.7657 6.89242V2.47007C12.7657 2.35112 12.6958 2.25315 12.5908 2.20417L7.10485 0.0209921C7.03488 -0.00699737 6.9649 -0.00699737 6.89493 0.0209921ZM6.13921 9.30651L4.15196 7.29826C4.11697 7.26328 4.11697 7.21429 4.15196 7.17931L4.76773 6.55654C4.80271 6.52155 4.8517 6.52155 4.88668 6.55654L6.1742 7.85805C6.20919 7.89304 6.25817 7.89304 6.29315 7.85805L9.68688 4.42934C9.72187 4.39435 9.77085 4.39435 9.80584 4.42934L10.4216 5.05211C10.4566 5.08709 10.4566 5.13607 10.4216 5.17106L6.32814 9.29951C6.27916 9.35549 6.19519 9.35549 6.13921 9.30651Z" fill="white"/>
</svg>
