<?xml version="1.0" encoding="UTF-8"?>
<svg width="40px" height="7px" viewBox="0 0 40 7" version="1.1" xmlns="http://www.w3.org/2000/svg" xmlns:xlink="http://www.w3.org/1999/xlink">
    <title>White</title>
    <g id="页面-1" stroke="none" stroke-width="1" fill="none" fill-rule="evenodd">
        <g id="Color-ring-single--(pc-auto-white)" transform="translate(-1110.000000, -729.000000)" fill="#FFFFFF" fill-rule="nonzero">
            <g id="White" transform="translate(1110.000000, 729.000000)">
                <path d="M3.011054,0.560422 C8.675554,0.186807 14.339167,2.66453526e-15 20.001892,2.66453526e-15 C25.664275,2.66453526e-15 31.326636,0.186784 36.988974,0.560354 C38.683052,0.672152 40,2.078848 40,3.776611 C40,5.31857 38.749995,6.568574 37.208037,6.568574 C37.146562,6.568574 37.085104,6.566544 37.023763,6.5625 C31.354427,6.1875 25.682016,6 20.006531,6 C14.329883,6 8.653156,6.187577 2.976351,6.562731 C1.437604,6.664452 0.107766,5.499484 0.006077,3.960735 C0.002027,3.899444 0,3.838036 0,3.776611 C0,2.078843 1.316967,0.672152 3.011054,0.560422 Z" id="Rectangle" transform="translate(20.000000, 3.284458) rotate(180.000000) translate(-20.000000, -3.284458) "></path>
            </g>
        </g>
    </g>
</svg>