<svg xmlns="http://www.w3.org/2000/svg" xmlns:xlink="http://www.w3.org/1999/xlink" viewBox="0 0 180 183" width="180"
    height="183" preserveAspectRatio="xMidYMid meet"
    style="width: 100%; height: 100%; transform: translate3d(0px, 0px, 0px); content-visibility: visible;">
    <defs>
        <clipPath id="__lottie_element_310">
            <rect width="180" height="183" x="0" y="0"></rect>
        </clipPath>
        <clipPath id="__lottie_element_312">
            <path d="M0,0 L180,0 L180,183 L0,183z"></path>
        </clipPath>
        <clipPath id="__lottie_element_316">
            <path d="M0,0 L121,0 L121,121 L0,121z"></path>
        </clipPath>
        <clipPath id="__lottie_element_323">
            <path fill="#ffffff" clip-rule="nonzero"
                d=" M64.5,-53.5 C64.5,-53.5 65,39 65,39 C65,39 88.5,51 88.5,51 C88.5,51 90,-73.5 90,-73.5 C90,-73.5 64.5,-53.5 64.5,-53.5"
                fill-opacity="1"></path>
        </clipPath>
        <linearGradient id="__lottie_element_325" spreadMethod="pad" gradientUnits="userSpaceOnUse"
            x1="80.85800170898438" y1="2.9030001163482666" x2="53.78900146484375" y2="-32.99399948120117">
            <stop offset="0%" stop-color="rgb(255,255,255)" stop-opacity="1"></stop>
            <stop offset="50%" stop-color="rgb(255,255,255)" stop-opacity="0.5"></stop>
            <stop offset="100%" stop-color="rgb(255,255,255)" stop-opacity="0"></stop>
        </linearGradient>
        <clipPath id="__lottie_element_327">
            <path fill="#ffffff" clip-rule="nonzero"
                d=" M-88.5,-67.5 C-88.5,-67.5 -87.5,58.25 -87.5,58.25 C-87.5,58.25 -65,42.75 -65,42.75 C-65,42.75 -65,-50.5 -65,-50.5 C-65,-50.5 -88.5,-67.5 -88.5,-67.5"
                fill-opacity="1"></path>
        </clipPath>
        <linearGradient id="__lottie_element_329" spreadMethod="pad" gradientUnits="userSpaceOnUse"
            x1="-14.54800033569336" y1="87.38600158691406" x2="-49.89099884033203" y2="67.21199798583984">
            <stop offset="0%" stop-color="rgb(255,255,255)" stop-opacity="1"></stop>
            <stop offset="50%" stop-color="rgb(255,255,255)" stop-opacity="0.5"></stop>
            <stop offset="100%" stop-color="rgb(255,255,255)" stop-opacity="0"></stop>
        </linearGradient>
        <clipPath id="__lottie_element_331">
            <path fill="#ffffff" clip-rule="nonzero"
                d=" M-67,-89.5 C-67,-89.5 -48,-67 -48,-67 C-48,-67 48.5,-66.5 48.5,-66.5 C48.5,-66.5 65.5,-89.5 65.5,-89.5 C65.5,-89.5 -67,-89.5 -67,-89.5"
                fill-opacity="1"></path>
        </clipPath>
        <linearGradient id="__lottie_element_333" spreadMethod="pad" gradientUnits="userSpaceOnUse"
            x1="-31.757999420166016" y1="-46.84199905395508" x2="-68.40599822998047" y2="-90.31400299072266">
            <stop offset="0%" stop-color="rgb(255,255,255)" stop-opacity="1"></stop>
            <stop offset="50%" stop-color="rgb(255,255,255)" stop-opacity="0.5"></stop>
            <stop offset="100%" stop-color="rgb(255,255,255)" stop-opacity="0"></stop>
        </linearGradient>
        <clipPath id="__lottie_element_335">
            <path fill="#ffffff" clip-rule="nonzero"
                d=" M-64.5,-49.75 C-64.5,-49.75 -64,44.5 -64,44.5 C-64,44.5 -49.527000427246094,59.362998962402344 -49.527000427246094,59.362998962402344 C-49.527000427246094,59.362998962402344 49.400001525878906,59.42300033569336 49.400001525878906,59.42300033569336 C49.400001525878906,59.42300033569336 66.75,44.5 66.75,44.5 C66.75,44.5 66,-51.25 66,-51.25 C66,-51.25 49.75,-67 49.75,-67 C49.75,-67 -48.25,-66.75 -48.25,-66.75 C-48.25,-66.75 -64.5,-49.75 -64.5,-49.75"
                fill-opacity="1"></path>
        </clipPath>
        <linearGradient id="__lottie_element_337" spreadMethod="pad" gradientUnits="userSpaceOnUse"
            x1="16.479999542236328" y1="12.430999755859375" x2="-16.798999786376953" y2="-17.950000762939453">
            <stop offset="0%" stop-color="rgb(255,255,255)" stop-opacity="1"></stop>
            <stop offset="50%" stop-color="rgb(255,255,255)" stop-opacity="0.5"></stop>
            <stop offset="100%" stop-color="rgb(255,255,255)" stop-opacity="0"></stop>
        </linearGradient>
        <linearGradient id="__lottie_element_348" spreadMethod="pad" gradientUnits="userSpaceOnUse"
            x1="-0.07800000160932541" y1="1.128000020980835" x2="0.0010000000474974513" y2="6.567999839782715">
            <stop offset="0%" stop-color="rgb(253,128,46)"></stop>
            <stop offset="50%" stop-color="rgb(238,113,31)"></stop>
            <stop offset="100%" stop-color="rgb(224,98,16)"></stop>
        </linearGradient>
        <linearGradient id="__lottie_element_364" spreadMethod="pad" gradientUnits="userSpaceOnUse" x1="0"
            y1="-21.10099983215332" x2="0" y2="21.10099983215332">
            <stop offset="0%" stop-color="rgb(254,207,44)"></stop>
            <stop offset="50%" stop-color="rgb(253,206,43)"></stop>
            <stop offset="100%" stop-color="rgb(253,205,41)"></stop>
        </linearGradient>
        <linearGradient id="__lottie_element_371" spreadMethod="pad" gradientUnits="userSpaceOnUse"
            x1="3.746999979019165" y1="20.555999755859375" x2="-2.7669999599456787" y2="-19.593000411987305">
            <stop offset="0%" stop-color="rgb(254,207,45)"></stop>
            <stop offset="50%" stop-color="rgb(253,206,43)"></stop>
            <stop offset="100%" stop-color="rgb(253,205,40)"></stop>
        </linearGradient>
        <linearGradient id="__lottie_element_375" spreadMethod="pad" gradientUnits="userSpaceOnUse"
            x1="6.4079999923706055" y1="-5.568999767303467" x2="7.133999824523926" y2="7.75">
            <stop offset="0%" stop-color="rgb(254,207,45)"></stop>
            <stop offset="50%" stop-color="rgb(253,168,45)"></stop>
            <stop offset="100%" stop-color="rgb(253,128,46)"></stop>
        </linearGradient>
        <linearGradient id="__lottie_element_379" spreadMethod="pad" gradientUnits="userSpaceOnUse"
            x1="8.303000450134277" y1="-61.571998596191406" x2="7.820000171661377" y2="83.39299774169922">
            <stop offset="0%" stop-color="rgb(253,249,100)"></stop>
            <stop offset="50%" stop-color="rgb(253,228,72)"></stop>
            <stop offset="100%" stop-color="rgb(254,207,45)"></stop>
        </linearGradient>
    </defs>
    <g clip-path="url(#__lottie_element_310)">
        <g clip-path="url(#__lottie_element_312)"
            transform="matrix(0.8469899892807007,0,0,0.8469899892807007,13.770904541015625,14.000419616699219)"
            opacity="1" style="display: block;">
            <g transform="matrix(1,0,0,1,90.81591796875,92.22119140625)" opacity="1" style="display: block;">
                <g opacity="1" transform="matrix(3,0,0,3,0,0)">
                    <path fill="rgb(253,205,41)" fill-opacity="1"
                        d=" M-29.604999542236328,-22.173999786376953 C-29.604999542236328,-22.173999786376953 -22.104999542236328,-30.073999404907227 -22.104999542236328,-30.073999404907227 C-22.104999542236328,-30.073999404907227 21.7549991607666,-30.073999404907227 21.7549991607666,-30.073999404907227 C21.7549991607666,-30.073999404907227 29.604999542236328,-22.763999938964844 29.604999542236328,-22.763999938964844 C29.604999542236328,-22.763999938964844 29.604999542236328,22.785999298095703 29.604999542236328,22.785999298095703 C29.604999542236328,22.785999298095703 21.53499984741211,30.076000213623047 21.53499984741211,30.076000213623047 C21.53499984741211,30.076000213623047 -23.084999084472656,30.076000213623047 -23.084999084472656,30.076000213623047 C-23.084999084472656,30.076000213623047 -29.604999542236328,24.45599937438965 -29.604999542236328,24.45599937438965 C-29.604999542236328,24.45599937438965 -29.604999542236328,-22.173999786376953 -29.604999542236328,-22.173999786376953z">
                    </path>
                </g>
            </g>
            <g transform="matrix(1,0,0,1,90.81591796875,87.26416015625)" opacity="1" style="display: block;">
                <g opacity="1" transform="matrix(3,0,0,3,0,0)"></g>
            </g>
            <g transform="matrix(1,0,0,1,90,91.5)" opacity="1" style="display: block;">
                <g opacity="1" transform="matrix(1,0,0,1,0,0)">
                    <path fill="url(#__lottie_element_379)" fill-opacity="1"
                        d=" M-69.75,-73 C-69.75,-73 -71.25,66.25 -71.25,66.25 C-71.25,66.25 71.5,69.5 71.5,69.5 C71.5,69.5 74.25,-70.75 74.25,-70.75 C74.25,-70.75 -69.75,-73 -69.75,-73z">
                    </path>
                </g>
            </g>
            <g transform="matrix(1,0,0,1,90.64794921875,161.52490234375)" opacity="1" style="display: block;">
                <g opacity="1" transform="matrix(3,0,0,3,0,0)">
                    <path fill="url(#__lottie_element_375)" fill-opacity="1"
                        d=" M-22.49799919128418,3.0429999828338623 C-22.49799919128418,3.0429999828338623 -16.49799919128418,-3.796999931335449 -16.49799919128418,-3.796999931335449 C-16.49799919128418,-3.796999931335449 16.20199966430664,-3.746999979019165 16.20199966430664,-3.746999979019165 C16.20199966430664,-3.746999979019165 22.50200080871582,3.7929999828338623 22.50200080871582,3.7929999828338623 C22.50200080871582,3.7929999828338623 -22.49799919128418,3.0429999828338623 -22.49799919128418,3.0429999828338623z">
                    </path>
                </g>
            </g>
            <g transform="matrix(1,0,0,1,167.85009765625,87.90087890625)" opacity="1" style="display: block;">
                <g opacity="1" transform="matrix(3,0,0,3,0,0)">
                    <path fill="url(#__lottie_element_371)" fill-opacity="1"
                        d=" M3.931999921798706,21.320999145507812 C3.931999921798706,21.320999145507812 -3.8480000495910645,15.75100040435791 -3.8480000495910645,15.75100040435791 C-3.8480000495910645,15.75100040435791 -3.927999973297119,-15.718999862670898 -3.927999973297119,-15.718999862670898 C-3.927999973297119,-15.718999862670898 3.931999921798706,-21.319000244140625 3.931999921798706,-21.319000244140625 C3.931999921798706,-21.319000244140625 3.931999921798706,21.320999145507812 3.931999921798706,21.320999145507812z">
                    </path>
                </g>
            </g>
            <g transform="matrix(1,0,0,1,90.549072265625,13.19580078125)" opacity="1" style="display: block;">
                <g opacity="1" transform="matrix(3,0,0,3,0,0)">
                    <path fill="rgb(254,226,47)" fill-opacity="1"
                        d=" M-21.920000076293945,-3.7320001125335693 C-21.920000076293945,-3.7320001125335693 -16.530000686645508,3.7279999256134033 -16.530000686645508,3.7279999256134033 C-16.530000686645508,3.7279999256134033 16.1299991607666,3.7279999256134033 16.1299991607666,3.7279999256134033 C16.1299991607666,3.7279999256134033 21.920000076293945,-3.7320001125335693 21.920000076293945,-3.7320001125335693 C21.920000076293945,-3.7320001125335693 -21.920000076293945,-3.7320001125335693 -21.920000076293945,-3.7320001125335693z">
                    </path>
                </g>
            </g>
            <g transform="matrix(1,0,0,1,13.6629638671875,88.55615234375)" opacity="1" style="display: block;">
                <g opacity="1" transform="matrix(3,0,0,3,0,0)">
                    <path fill="url(#__lottie_element_364)" fill-opacity="1"
                        d=" M3.8919999599456787,-15.670999526977539 C3.8919999599456787,-15.670999526977539 3.8919999599456787,15.479000091552734 3.8919999599456787,15.479000091552734 C3.8919999599456787,15.479000091552734 -3.888000011444092,21.099000930786133 -3.888000011444092,21.099000930786133 C-3.888000011444092,21.099000930786133 -3.888000011444092,-21.10099983215332 -3.888000011444092,-21.10099983215332 C-3.888000011444092,-21.10099983215332 3.8919999599456787,-15.670999526977539 3.8919999599456787,-15.670999526977539z">
                    </path>
                </g>
            </g>
            <g transform="matrix(1,0,0,1,22.18603515625,21.76904296875)" opacity="1" style="display: block;">
                <g opacity="1" transform="matrix(3,0,0,3,0,0)">
                    <path fill="rgb(253,249,100)" fill-opacity="1"
                        d=" M1.0509999990463257,6.590000152587891 C1.0509999990463257,6.590000152587891 6.730999946594238,0.9100000262260437 6.730999946594238,0.9100000262260437 C6.730999946594238,0.9100000262260437 0.7710000276565552,-6.590000152587891 0.7710000276565552,-6.590000152587891 C0.7710000276565552,-6.590000152587891 -6.729000091552734,1.159999966621399 -6.729000091552734,1.159999966621399 C-6.729000091552734,1.159999966621399 1.0509999990463257,6.590000152587891 1.0509999990463257,6.590000152587891z">
                    </path>
                </g>
            </g>
            <g transform="matrix(1,0,0,1,159.2900390625,21.3779296875)" opacity="1" style="display: block;">
                <g opacity="1" transform="matrix(3,0,0,3,0,0)">
                    <path fill="rgb(253,249,100)" fill-opacity="1"
                        d=" M-1.0709999799728394,6.460999965667725 C-1.0709999799728394,6.460999965667725 6.7789998054504395,0.9010000228881836 6.7789998054504395,0.9010000228881836 C6.7789998054504395,0.9010000228881836 -0.9909999966621399,-6.459000110626221 -0.9909999966621399,-6.459000110626221 C-0.9909999966621399,-6.459000110626221 -6.781000137329102,1.0010000467300415 -6.781000137329102,1.0010000467300415 C-6.781000137329102,1.0010000467300415 -1.0709999799728394,6.460999965667725 -1.0709999799728394,6.460999965667725z">
                    </path>
                </g>
            </g>
            <g transform="matrix(1,0,0,1,21.572021484375,152.81787109375)" opacity="1" style="display: block;">
                <g opacity="1" transform="matrix(3,0,0,3,0,0)">
                    <path fill="rgb(255,220,98)" fill-opacity="1"
                        d=" M0.5260000228881836,5.945000171661377 C0.5260000228881836,5.945000171661377 6.526000022888184,-0.8949999809265137 6.526000022888184,-0.8949999809265137 C6.526000022888184,-0.8949999809265137 1.25600004196167,-5.945000171661377 1.25600004196167,-5.945000171661377 C1.25600004196167,-5.945000171661377 -6.52400016784668,-1.184999942779541 -6.52400016784668,-1.184999942779541 C-6.52400016784668,-1.184999942779541 0.5260000228881836,5.945000171661377 0.5260000228881836,5.945000171661377z">
                    </path>
                </g>
            </g>
            <g transform="matrix(1,0,0,1,159.447021484375,152.63818359375)" opacity="1" style="display: block;">
                <g opacity="1" transform="matrix(3,0,0,3,0,0)">
                    <path fill="rgb(255,220,98)" fill-opacity="1"
                        d=" M-1.3489999771118164,5.998000144958496 C-1.3489999771118164,5.998000144958496 -6.729000091552734,-0.7820000052452087 -6.729000091552734,-0.7820000052452087 C-6.729000091552734,-0.7820000052452087 -1.0490000247955322,-6.001999855041504 -1.0490000247955322,-6.001999855041504 C-1.0490000247955322,-6.001999855041504 6.730999946594238,-1.3020000457763672 6.730999946594238,-1.3020000457763672 C6.730999946594238,-1.3020000457763672 -1.3489999771118164,5.998000144958496 -1.3489999771118164,5.998000144958496z">
                    </path>
                </g>
            </g>
            <g transform="matrix(1,0,0,1,90.81591796875,165.587890625)" opacity="1" style="display: block;">
                <g opacity="1" transform="matrix(3,0,0,3,0,0)">
                    <path fill="url(#__lottie_element_348)" fill-opacity="1"
                        d=" M-29.604999542236328,-5.438000202178955 C-29.604999542236328,-5.438000202178955 -29.604999542236328,-0.04800000041723251 -29.604999542236328,-0.04800000041723251 C-29.604999542236328,-0.04800000041723251 -23.084999084472656,5.622000217437744 -23.084999084472656,5.622000217437744 C-23.084999084472656,5.622000217437744 21.53499984741211,5.622000217437744 21.53499984741211,5.622000217437744 C21.53499984741211,5.622000217437744 29.604999542236328,-1.6679999828338623 29.604999542236328,-1.6679999828338623 C29.604999542236328,-1.6679999828338623 29.604999542236328,-5.618000030517578 29.604999542236328,-5.618000030517578 C29.604999542236328,-5.618000030517578 21.53499984741211,1.6820000410079956 21.53499984741211,1.6820000410079956 C21.53499984741211,1.6820000410079956 -22.426000595092773,1.5219999551773071 -22.426000595092773,1.5219999551773071 C-22.426000595092773,1.5219999551773071 -29.604999542236328,-5.438000202178955 -29.604999542236328,-5.438000202178955z">
                    </path>
                </g>
            </g>
            <g transform="matrix(1,0,0,1,167.52197265625,165.587890625)" opacity="1" style="display: block;">
                <g opacity="1" transform="matrix(3,0,0,3,0,0)">
                    <path fill="rgb(205,93,6)" fill-opacity="1"
                        d=" M-4.0370001792907715,1.6820000410079956 C-4.0370001792907715,1.6820000410079956 -4.0370001792907715,5.622000217437744 -4.0370001792907715,5.622000217437744 C-4.0370001792907715,5.622000217437744 4.0329999923706055,-1.6679999828338623 4.0329999923706055,-1.6679999828338623 C4.0329999923706055,-1.6679999828338623 4.0329999923706055,-5.618000030517578 4.0329999923706055,-5.618000030517578 C4.0329999923706055,-5.618000030517578 -4.0370001792907715,1.6820000410079956 -4.0370001792907715,1.6820000410079956z">
                    </path>
                </g>
            </g>
            <g transform="matrix(1,0,0,1,12.7659912109375,165.85400390625)" opacity="1" style="display: block;">
                <g opacity="1" transform="matrix(3,0,0,3,0,0)">
                    <path fill="rgb(205,93,6)" fill-opacity="1"
                        d=" M2.930999994277954,5.531000137329102 C2.930999994277954,5.531000137329102 3.5910000801086426,1.440999984741211 3.5910000801086426,1.440999984741211 C3.5910000801086426,1.440999984741211 -3.5889999866485596,-5.5289998054504395 -3.5889999866485596,-5.5289998054504395 C-3.5889999866485596,-5.5289998054504395 -3.5889999866485596,-0.04899999871850014 -3.5889999866485596,-0.04899999871850014 C-3.5889999866485596,-0.04899999871850014 2.930999994277954,5.531000137329102 2.930999994277954,5.531000137329102z">
                    </path>
                </g>
            </g>
            <g clip-path="url(#__lottie_element_335)" transform="matrix(1,0,0,1,90,91.5)" opacity="1"
                style="display: block;">
                <g opacity="0"
                    transform="matrix(0.5052300095558167,0,0,0.5052300095558167,73.97699737548828,71.49800109863281)">
                    <path fill="url(#__lottie_element_337)" fill-opacity="1"
                        d=" M54.25,-75 C54.25,-75 -85.75,56 -85.75,56 C-85.75,56 -63,73.75 -63,73.75 C-63,73.75 71.75,-66.25 71.75,-66.25 C71.75,-66.25 54.25,-75 54.25,-75z">
                    </path>
                </g>
            </g>
            <g clip-path="url(#__lottie_element_331)" transform="matrix(1,0,0,1,90,91.5)" opacity="1"
                style="display: block;">
                <g opacity="1"
                    transform="matrix(0.8103625774383545,0,0,0.8103625774383545,65.12965393066406,6.749384880065918)">
                    <path fill="url(#__lottie_element_333)" fill-opacity="1"
                        d=" M20.496999740600586,-136.9239959716797 C20.496999740600586,-136.9239959716797 -74.49299621582031,-43.82699966430664 -74.49299621582031,-43.82699966430664 C-74.49299621582031,-43.82699966430664 -54.00400161743164,-15.27299976348877 -54.00400161743164,-15.27299976348877 C-54.00400161743164,-15.27299976348877 26.124000549316406,-102.302001953125 26.124000549316406,-102.302001953125 C26.124000549316406,-102.302001953125 20.496999740600586,-136.9239959716797 20.496999740600586,-136.9239959716797z">
                    </path>
                </g>
            </g>
            <g clip-path="url(#__lottie_element_327)" transform="matrix(1,0,0,1,90,91.5)" opacity="1"
                style="display: block;">
                <g opacity="0.532316923075334"
                    transform="matrix(1.6751867532730103,0,0,0.5489618182182312,-6.5928955078125,-21.165950775146484)">
                    <path fill="url(#__lottie_element_329)" fill-opacity="1"
                        d=" M-58.45199966430664,141.1199951171875 C-58.45199966430664,141.1199951171875 -53.98500061035156,223.33099365234375 -53.98500061035156,223.33099365234375 C-53.98500061035156,223.33099365234375 -16.957000732421875,61.25400161743164 -16.957000732421875,61.25400161743164 C-16.957000732421875,61.25400161743164 -23.06599998474121,12.086000442504883 -23.06599998474121,12.086000442504883 C-23.06599998474121,12.086000442504883 -58.45199966430664,141.1199951171875 -58.45199966430664,141.1199951171875z">
                    </path>
                </g>
            </g>
            <g clip-path="url(#__lottie_element_323)" transform="matrix(1,0,0,1,91,96.5)" opacity="1"
                style="display: block;">
                <g opacity="0.5057057142871899"
                    transform="matrix(0.8401584625244141,0.16081595420837402,-0.16081595420837402,0.8401584625244141,8.572525024414062,-34.02500534057617)">
                    <path fill="url(#__lottie_element_325)" fill-opacity="1"
                        d=" M92.31300354003906,-69.24600219726562 C92.31300354003906,-69.24600219726562 35.6879997253418,14.3100004196167 35.6879997253418,14.3100004196167 C35.6879997253418,14.3100004196167 54.624000549316406,38.62200164794922 54.624000549316406,38.62200164794922 C54.624000549316406,38.62200164794922 96.56300354003906,-24.249000549316406 96.56300354003906,-24.249000549316406 C96.56300354003906,-24.249000549316406 92.31300354003906,-69.24600219726562 92.31300354003906,-69.24600219726562z">
                    </path>
                </g>
            </g>
            <g clip-path="url(#__lottie_element_316)"
                transform="matrix(0.45454999804496765,0,0,0.45454999804496765,125.49972534179688,110.49972534179688)"
                opacity="0" style="display: block;">
                <g transform="matrix(0.5788800120353699,0,0,0.5788800120353699,61.45800018310547,58.45800018310547)"
                    opacity="1" style="display: block;">
                    <g opacity="1"
                        transform="matrix(2.1580193042755127,2.083975076675415,-2.083975076675415,2.1580193042755127,0,0)">
                        <path fill="rgb(255,255,255)" fill-opacity="1"
                            d=" M-0.31299999356269836,10.217000007629395 C-10.262999534606934,10.217000007629395 -20.152999877929688,20.156999588012695 -20.152999877929688,20.156999588012695 C-20.152999877929688,20.156999588012695 -11.472999572753906,10.956999778747559 -11.472999572753906,0.6169999837875366 C-11.472999572753906,-9.722999572753906 -20.152999877929688,-20.152999877929688 -20.152999877929688,-20.152999877929688 C-20.152999877929688,-20.152999877929688 -11.062999725341797,-10.913000106811523 -0.6930000185966492,-10.913000106811523 C9.666999816894531,-10.913000106811523 20.156999588012695,-20.152999877929688 20.156999588012695,-20.152999877929688 C20.156999588012695,-20.152999877929688 10.04699993133545,-9.782999992370605 10.04699993133545,0.21699999272823334 C10.04699993133545,10.206999778747559 20.156999588012695,20.156999588012695 20.156999588012695,20.156999588012695 C20.156999588012695,20.156999588012695 9.63700008392334,10.217000007629395 -0.31299999356269836,10.217000007629395z">
                        </path>
                    </g>
                </g>
            </g>
        </g>
    </g>
</svg>